<?xml version="1.0" encoding="utf-8" standalone="no"?>
<!DOCTYPE svg PUBLIC "-//W3C//DTD SVG 1.1//EN"
  "http://www.w3.org/Graphics/SVG/1.1/DTD/svg11.dtd">
<svg xmlns:xlink="http://www.w3.org/1999/xlink" width="720.705876pt" height="775.300056pt" viewBox="0 0 720.705876 775.300056" xmlns="http://www.w3.org/2000/svg" version="1.1">
 <metadata>
  <rdf:RDF xmlns:dc="http://purl.org/dc/elements/1.1/" xmlns:cc="http://creativecommons.org/ns#" xmlns:rdf="http://www.w3.org/1999/02/22-rdf-syntax-ns#">
   <cc:Work>
    <dc:type rdf:resource="http://purl.org/dc/dcmitype/StillImage"/>
    <dc:date>2026-06-11T11:36:33.634980</dc:date>
    <dc:format>image/svg+xml</dc:format>
    <dc:creator>
     <cc:Agent>
      <dc:title>Matplotlib v3.7.5, https://matplotlib.org/</dc:title>
     </cc:Agent>
    </dc:creator>
   </cc:Work>
  </rdf:RDF>
 </metadata>
 <defs>
  <style type="text/css">*{stroke-linejoin: round; stroke-linecap: butt}</style>
 </defs>
 <g id="figure_1">
  <g id="patch_1">
   <path d="M 0 775.300056 
L 720.705876 775.300056 
L 720.705876 0 
L 0 0 
z
" style="fill: #ffffff"/>
  </g>
  <g id="axes_1">
   <g id="patch_2">
    <path d="M 658.641438 353.973656 
C 658.641438 314.65996 650.897497 275.72854 635.852797 239.407421 
C 620.808097 203.086302 598.755219 170.081838 570.956237 142.282857 
C 543.157256 114.483875 510.152792 92.430997 473.831673 77.386297 
C 437.510554 62.341597 398.579134 54.597656 359.265438 54.597656 
C 319.951742 54.597656 281.020322 62.341597 244.699203 77.386297 
C 208.378083 92.430997 175.373619 114.483875 147.574638 142.282857 
C 119.775657 170.081838 97.722779 203.086302 82.678079 239.407421 
C 67.633379 275.72854 59.889438 314.65996 59.889438 353.973656 
C 59.889438 393.287352 67.633379 432.218772 82.678079 468.539891 
C 97.722779 504.861011 119.775657 537.865475 147.574638 565.664456 
C 175.373619 593.463437 208.378083 615.516315 244.699203 630.561015 
C 281.020322 645.605715 319.951742 653.349656 359.265438 653.349656 
C 398.579134 653.349656 437.510554 645.605715 473.831673 630.561015 
C 510.152792 615.516315 543.157256 593.463437 570.956237 565.664456 
C 598.755219 537.865475 620.808097 504.861011 635.852797 468.539891 
C 650.897497 432.218772 658.641438 393.287352 658.641438 353.973656 
M 359.265438 353.973656 
C 359.265438 353.973656 359.265438 353.973656 359.265438 353.973656 
C 359.265438 353.973656 359.265438 353.973656 359.265438 353.973656 
C 359.265438 353.973656 359.265438 353.973656 359.265438 353.973656 
C 359.265438 353.973656 359.265438 353.973656 359.265438 353.973656 
C 359.265438 353.973656 359.265438 353.973656 359.265438 353.973656 
C 359.265438 353.973656 359.265438 353.973656 359.265438 353.973656 
C 359.265438 353.973656 359.265438 353.973656 359.265438 353.973656 
C 359.265438 353.973656 359.265438 353.973656 359.265438 353.973656 
C 359.265438 353.973656 359.265438 353.973656 359.265438 353.973656 
C 359.265438 353.973656 359.265438 353.973656 359.265438 353.973656 
C 359.265438 353.973656 359.265438 353.973656 359.265438 353.973656 
C 359.265438 353.973656 359.265438 353.973656 359.265438 353.973656 
C 359.265438 353.973656 359.265438 353.973656 359.265438 353.973656 
C 359.265438 353.973656 359.265438 353.973656 359.265438 353.973656 
C 359.265438 353.973656 359.265438 353.973656 359.265438 353.973656 
C 359.265438 353.973656 359.265438 353.973656 359.265438 353.973656 
z
" style="fill: #ffffff"/>
   </g>
   <g id="patch_3">
    <path d="M 359.265438 211.339703 
L 451.253127 227.363464 
L 512.17975 304.288784 
L 460.698183 386.931153 
L 435.052999 458.286286 
L 359.265438 511.819652 
L 293.277139 444.798758 
L 130.774833 428.214754 
L 253.383888 319.570655 
L 261.305808 219.143792 
z
" clip-path="url(#p98e8ed8f7c)" style="fill: #1f77b4; opacity: 0.055"/>
   </g>
   <g id="patch_4">
    <path d="M 359.265438 234.11099 
L 444.753279 236.309737 
L 498.993493 308.573259 
L 508.745273 402.542599 
L 473.898111 511.751996 
L 359.265438 549.802982 
L 296.279606 440.666216 
L 287.888816 377.165326 
L 222.900679 309.66606 
L 252.584354 207.139742 
z
" clip-path="url(#p98e8ed8f7c)" style="fill: #ff7f0e; opacity: 0.055"/>
   </g>
   <g id="patch_5">
    <path d="M 359.265438 226.514324 
L 444.753279 236.309737 
L 501.182305 307.862071 
L 556.792363 418.154045 
L 470.268755 506.756615 
L 359.265438 527.012984 
L 305.265013 428.298865 
L 298.957442 373.568912 
L 214.839445 307.046806 
L 264.209293 223.140097 
z
" clip-path="url(#p98e8ed8f7c)" style="fill: #2ca02c; opacity: 0.055"/>
   </g>
   <g id="matplotlib.axis_1">
    <g id="xtick_1">
     <g id="line2d_1">
      <path d="M 359.265438 353.973656 
L 359.265438 54.597656 
" clip-path="url(#p98e8ed8f7c)" style="fill: none; stroke: #b0b0b0; stroke-opacity: 0.3; stroke-width: 0.65; stroke-linecap: square"/>
     </g>
    </g>
    <g id="xtick_2">
     <g id="line2d_2">
      <path d="M 359.265438 353.973656 
L 535.234235 111.773385 
" clip-path="url(#p98e8ed8f7c)" style="fill: none; stroke: #b0b0b0; stroke-opacity: 0.3; stroke-width: 0.65; stroke-linecap: square"/>
     </g>
    </g>
    <g id="xtick_3">
     <g id="line2d_3">
      <path d="M 359.265438 353.973656 
L 643.988933 261.461385 
" clip-path="url(#p98e8ed8f7c)" style="fill: none; stroke: #b0b0b0; stroke-opacity: 0.3; stroke-width: 0.65; stroke-linecap: square"/>
     </g>
    </g>
    <g id="xtick_4">
     <g id="line2d_4">
      <path d="M 359.265438 353.973656 
L 643.988933 446.485928 
" clip-path="url(#p98e8ed8f7c)" style="fill: none; stroke: #b0b0b0; stroke-opacity: 0.3; stroke-width: 0.65; stroke-linecap: square"/>
     </g>
    </g>
    <g id="xtick_5">
     <g id="line2d_5">
      <path d="M 359.265438 353.973656 
L 535.234235 596.173928 
" clip-path="url(#p98e8ed8f7c)" style="fill: none; stroke: #b0b0b0; stroke-opacity: 0.3; stroke-width: 0.65; stroke-linecap: square"/>
     </g>
    </g>
    <g id="xtick_6">
     <g id="line2d_6">
      <path d="M 359.265438 353.973656 
L 359.265438 653.349656 
" clip-path="url(#p98e8ed8f7c)" style="fill: none; stroke: #b0b0b0; stroke-opacity: 0.3; stroke-width: 0.65; stroke-linecap: square"/>
     </g>
    </g>
    <g id="xtick_7">
     <g id="line2d_7">
      <path d="M 359.265438 353.973656 
L 183.29664 596.173928 
" clip-path="url(#p98e8ed8f7c)" style="fill: none; stroke: #b0b0b0; stroke-opacity: 0.3; stroke-width: 0.65; stroke-linecap: square"/>
     </g>
    </g>
    <g id="xtick_8">
     <g id="line2d_8">
      <path d="M 359.265438 353.973656 
L 74.541942 446.485928 
" clip-path="url(#p98e8ed8f7c)" style="fill: none; stroke: #b0b0b0; stroke-opacity: 0.3; stroke-width: 0.65; stroke-linecap: square"/>
     </g>
    </g>
    <g id="xtick_9">
     <g id="line2d_9">
      <path d="M 359.265438 353.973656 
L 74.541942 261.461385 
" clip-path="url(#p98e8ed8f7c)" style="fill: none; stroke: #b0b0b0; stroke-opacity: 0.3; stroke-width: 0.65; stroke-linecap: square"/>
     </g>
    </g>
    <g id="xtick_10">
     <g id="line2d_10">
      <path d="M 359.265438 353.973656 
L 183.29664 111.773385 
" clip-path="url(#p98e8ed8f7c)" style="fill: none; stroke: #b0b0b0; stroke-opacity: 0.3; stroke-width: 0.65; stroke-linecap: square"/>
     </g>
    </g>
   </g>
   <g id="matplotlib.axis_2">
    <g id="ytick_1">
     <g id="line2d_11">
      <path d="M 359.265438 353.973656 
C 359.265438 353.973656 359.265438 353.973656 359.265438 353.973656 
C 359.265438 353.973656 359.265438 353.973656 359.265438 353.973656 
C 359.265438 353.973656 359.265438 353.973656 359.265438 353.973656 
C 359.265438 353.973656 359.265438 353.973656 359.265438 353.973656 
C 359.265438 353.973656 359.265438 353.973656 359.265438 353.973656 
C 359.265438 353.973656 359.265438 353.973656 359.265438 353.973656 
C 359.265438 353.973656 359.265438 353.973656 359.265438 353.973656 
C 359.265438 353.973656 359.265438 353.973656 359.265438 353.973656 
C 359.265438 353.973656 359.265438 353.973656 359.265438 353.973656 
C 359.265438 353.973656 359.265438 353.973656 359.265438 353.973656 
C 359.265438 353.973656 359.265438 353.973656 359.265438 353.973656 
C 359.265438 353.973656 359.265438 353.973656 359.265438 353.973656 
C 359.265438 353.973656 359.265438 353.973656 359.265438 353.973656 
C 359.265438 353.973656 359.265438 353.973656 359.265438 353.973656 
C 359.265438 353.973656 359.265438 353.973656 359.265438 353.973656 
C 359.265438 353.973656 359.265438 353.973656 359.265438 353.973656 
" clip-path="url(#p98e8ed8f7c)" style="fill: none; stroke: #b0b0b0; stroke-opacity: 0.38; stroke-width: 0.65; stroke-linecap: square"/>
     </g>
     <g id="text_1">
      <!-- -0.60 -->
      <g transform="translate(359.265438 352.309906) scale(0.08 -0.08)">
       <defs>
        <path id="DejaVuSans-2d" d="M 313 2009 
L 1997 2009 
L 1997 1497 
L 313 1497 
L 313 2009 
z
" transform="scale(0.015625)"/>
        <path id="DejaVuSans-30" d="M 2034 4250 
Q 1547 4250 1301 3770 
Q 1056 3291 1056 2328 
Q 1056 1369 1301 889 
Q 1547 409 2034 409 
Q 2525 409 2770 889 
Q 3016 1369 3016 2328 
Q 3016 3291 2770 3770 
Q 2525 4250 2034 4250 
z
M 2034 4750 
Q 2819 4750 3233 4129 
Q 3647 3509 3647 2328 
Q 3647 1150 3233 529 
Q 2819 -91 2034 -91 
Q 1250 -91 836 529 
Q 422 1150 422 2328 
Q 422 3509 836 4129 
Q 1250 4750 2034 4750 
z
" transform="scale(0.015625)"/>
        <path id="DejaVuSans-2e" d="M 684 794 
L 1344 794 
L 1344 0 
L 684 0 
L 684 794 
z
" transform="scale(0.015625)"/>
        <path id="DejaVuSans-36" d="M 2113 2584 
Q 1688 2584 1439 2293 
Q 1191 2003 1191 1497 
Q 1191 994 1439 701 
Q 1688 409 2113 409 
Q 2538 409 2786 701 
Q 3034 994 3034 1497 
Q 3034 2003 2786 2293 
Q 2538 2584 2113 2584 
z
M 3366 4563 
L 3366 3988 
Q 3128 4100 2886 4159 
Q 2644 4219 2406 4219 
Q 1781 4219 1451 3797 
Q 1122 3375 1075 2522 
Q 1259 2794 1537 2939 
Q 1816 3084 2150 3084 
Q 2853 3084 3261 2657 
Q 3669 2231 3669 1497 
Q 3669 778 3244 343 
Q 2819 -91 2113 -91 
Q 1303 -91 875 529 
Q 447 1150 447 2328 
Q 447 3434 972 4092 
Q 1497 4750 2381 4750 
Q 2619 4750 2861 4703 
Q 3103 4656 3366 4563 
z
" transform="scale(0.015625)"/>
       </defs>
       <use xlink:href="#DejaVuSans-2d"/>
       <use xlink:href="#DejaVuSans-30" x="36.083984"/>
       <use xlink:href="#DejaVuSans-2e" x="99.707031"/>
       <use xlink:href="#DejaVuSans-36" x="131.494141"/>
       <use xlink:href="#DejaVuSans-30" x="195.117188"/>
      </g>
     </g>
    </g>
    <g id="ytick_2">
     <g id="line2d_12">
      <path d="M 359.265438 316.551656 
C 364.17965 316.551656 369.046077 317.519649 373.586217 319.400236 
C 378.126357 321.280824 382.251915 324.037434 385.726788 327.512306 
C 389.20166 330.987179 391.95827 335.112737 393.838858 339.652877 
C 395.719445 344.193017 396.687438 349.059444 396.687438 353.973656 
C 396.687438 358.887868 395.719445 363.754296 393.838858 368.294436 
C 391.95827 372.834576 389.20166 376.960134 385.726788 380.435006 
C 382.251915 383.909879 378.126357 386.666489 373.586217 388.547076 
C 369.046077 390.427664 364.17965 391.395656 359.265438 391.395656 
C 354.351226 391.395656 349.484798 390.427664 344.944658 388.547076 
C 340.404518 386.666489 336.27896 383.909879 332.804088 380.435006 
C 329.329215 376.960134 326.572605 372.834576 324.692018 368.294436 
C 322.81143 363.754296 321.843438 358.887868 321.843438 353.973656 
C 321.843438 349.059444 322.81143 344.193017 324.692018 339.652877 
C 326.572605 335.112737 329.329215 330.987179 332.804088 327.512306 
C 336.27896 324.037434 340.404518 321.280824 344.944658 319.400236 
C 349.484798 317.519649 354.351226 316.551656 359.265438 316.551656 
" clip-path="url(#p98e8ed8f7c)" style="fill: none; stroke: #b0b0b0; stroke-opacity: 0.38; stroke-width: 0.65; stroke-linecap: square"/>
     </g>
     <g id="text_2">
      <!-- -0.40 -->
      <g transform="translate(373.586217 317.736486) scale(0.08 -0.08)">
       <defs>
        <path id="DejaVuSans-34" d="M 2419 4116 
L 825 1625 
L 2419 1625 
L 2419 4116 
z
M 2253 4666 
L 3047 4666 
L 3047 1625 
L 3713 1625 
L 3713 1100 
L 3047 1100 
L 3047 0 
L 2419 0 
L 2419 1100 
L 313 1100 
L 313 1709 
L 2253 4666 
z
" transform="scale(0.015625)"/>
       </defs>
       <use xlink:href="#DejaVuSans-2d"/>
       <use xlink:href="#DejaVuSans-30" x="36.083984"/>
       <use xlink:href="#DejaVuSans-2e" x="99.707031"/>
       <use xlink:href="#DejaVuSans-34" x="131.494141"/>
       <use xlink:href="#DejaVuSans-30" x="195.117188"/>
      </g>
     </g>
    </g>
    <g id="ytick_3">
     <g id="line2d_13">
      <path d="M 359.265438 279.129656 
C 369.093862 279.129656 378.826717 281.065641 387.906997 284.826817 
C 396.987276 288.587992 405.238392 294.101211 412.188138 301.050956 
C 419.137883 308.000702 424.651102 316.251818 428.412278 325.332097 
C 432.173453 334.412377 434.109438 344.145232 434.109438 353.973656 
C 434.109438 363.80208 432.173453 373.534935 428.412278 382.615215 
C 424.651102 391.695495 419.137883 399.946611 412.188138 406.896356 
C 405.238392 413.846101 396.987276 419.359321 387.906997 423.120496 
C 378.826717 426.881671 369.093862 428.817656 359.265438 428.817656 
C 349.437014 428.817656 339.704159 426.881671 330.623879 423.120496 
C 321.543599 419.359321 313.292483 413.846101 306.342738 406.896356 
C 299.392993 399.946611 293.879773 391.695495 290.118598 382.615215 
C 286.357423 373.534935 284.421438 363.80208 284.421438 353.973656 
C 284.421438 344.145232 286.357423 334.412377 290.118598 325.332097 
C 293.879773 316.251818 299.392993 308.000702 306.342738 301.050956 
C 313.292483 294.101211 321.543599 288.587992 330.623879 284.826817 
C 339.704159 281.065641 349.437014 279.129656 359.265438 279.129656 
" clip-path="url(#p98e8ed8f7c)" style="fill: none; stroke: #b0b0b0; stroke-opacity: 0.38; stroke-width: 0.65; stroke-linecap: square"/>
     </g>
     <g id="text_3">
      <!-- -0.20 -->
      <g transform="translate(387.906997 283.163067) scale(0.08 -0.08)">
       <defs>
        <path id="DejaVuSans-32" d="M 1228 531 
L 3431 531 
L 3431 0 
L 469 0 
L 469 531 
Q 828 903 1448 1529 
Q 2069 2156 2228 2338 
Q 2531 2678 2651 2914 
Q 2772 3150 2772 3378 
Q 2772 3750 2511 3984 
Q 2250 4219 1831 4219 
Q 1534 4219 1204 4116 
Q 875 4013 500 3803 
L 500 4441 
Q 881 4594 1212 4672 
Q 1544 4750 1819 4750 
Q 2544 4750 2975 4387 
Q 3406 4025 3406 3419 
Q 3406 3131 3298 2873 
Q 3191 2616 2906 2266 
Q 2828 2175 2409 1742 
Q 1991 1309 1228 531 
z
" transform="scale(0.015625)"/>
       </defs>
       <use xlink:href="#DejaVuSans-2d"/>
       <use xlink:href="#DejaVuSans-30" x="36.083984"/>
       <use xlink:href="#DejaVuSans-2e" x="99.707031"/>
       <use xlink:href="#DejaVuSans-32" x="131.494141"/>
       <use xlink:href="#DejaVuSans-30" x="195.117188"/>
      </g>
     </g>
    </g>
    <g id="ytick_4">
     <g id="line2d_14">
      <path d="M 359.265438 241.707656 
C 374.008074 241.707656 388.607356 244.611634 402.227776 250.253397 
C 415.848196 255.895159 428.22487 264.164988 438.649488 274.589606 
C 449.074106 285.014224 457.343935 297.390898 462.985697 311.011318 
C 468.62746 324.631738 471.531438 339.23102 471.531438 353.973656 
C 471.531438 368.716292 468.62746 383.315575 462.985697 396.935994 
C 457.343935 410.556414 449.074106 422.933088 438.649488 433.357706 
C 428.22487 443.782324 415.848196 452.052153 402.227776 457.693916 
C 388.607356 463.335678 374.008074 466.239656 359.265438 466.239656 
C 344.522802 466.239656 329.923519 463.335678 316.3031 457.693916 
C 302.68268 452.052153 290.306006 443.782324 279.881388 433.357706 
C 269.45677 422.933088 261.186941 410.556414 255.545178 396.935994 
C 249.903416 383.315575 246.999438 368.716292 246.999438 353.973656 
C 246.999438 339.23102 249.903416 324.631738 255.545178 311.011318 
C 261.186941 297.390898 269.45677 285.014224 279.881388 274.589606 
C 290.306006 264.164988 302.68268 255.895159 316.3031 250.253397 
C 329.923519 244.611634 344.522802 241.707656 359.265438 241.707656 
" clip-path="url(#p98e8ed8f7c)" style="fill: none; stroke: #b0b0b0; stroke-opacity: 0.38; stroke-width: 0.65; stroke-linecap: square"/>
     </g>
     <g id="text_4">
      <!-- +0.00 -->
      <g transform="translate(402.227776 248.589647) scale(0.08 -0.08)">
       <defs>
        <path id="DejaVuSans-2b" d="M 2944 4013 
L 2944 2272 
L 4684 2272 
L 4684 1741 
L 2944 1741 
L 2944 0 
L 2419 0 
L 2419 1741 
L 678 1741 
L 678 2272 
L 2419 2272 
L 2419 4013 
L 2944 4013 
z
" transform="scale(0.015625)"/>
       </defs>
       <use xlink:href="#DejaVuSans-2b"/>
       <use xlink:href="#DejaVuSans-30" x="83.789062"/>
       <use xlink:href="#DejaVuSans-2e" x="147.412109"/>
       <use xlink:href="#DejaVuSans-30" x="179.199219"/>
       <use xlink:href="#DejaVuSans-30" x="242.822266"/>
      </g>
     </g>
    </g>
    <g id="ytick_5">
     <g id="line2d_15">
      <path d="M 359.265438 204.285656 
C 378.922286 204.285656 398.387996 208.157627 416.548555 215.679977 
C 434.709115 223.202327 451.211347 234.228766 465.110838 248.128256 
C 479.010328 262.027747 490.036767 278.529979 497.559117 296.690539 
C 505.081467 314.851098 508.953438 334.316808 508.953438 353.973656 
C 508.953438 373.630504 505.081467 393.096214 497.559117 411.256774 
C 490.036767 429.417333 479.010328 445.919566 465.110838 459.819056 
C 451.211347 473.718547 434.709115 484.744986 416.548555 492.267336 
C 398.387996 499.789686 378.922286 503.661656 359.265438 503.661656 
C 339.60859 503.661656 320.14288 499.789686 301.98232 492.267336 
C 283.821761 484.744986 267.319528 473.718547 253.420038 459.819056 
C 239.520547 445.919566 228.494108 429.417333 220.971758 411.256774 
C 213.449408 393.096214 209.577438 373.630504 209.577438 353.973656 
C 209.577438 334.316808 213.449408 314.851098 220.971758 296.690539 
C 228.494108 278.529979 239.520547 262.027747 253.420038 248.128256 
C 267.319528 234.228766 283.821761 223.202327 301.98232 215.679977 
C 320.14288 208.157627 339.60859 204.285656 359.265438 204.285656 
" clip-path="url(#p98e8ed8f7c)" style="fill: none; stroke: #b0b0b0; stroke-opacity: 0.38; stroke-width: 0.65; stroke-linecap: square"/>
     </g>
     <g id="text_5">
      <!-- +0.20 -->
      <g transform="translate(416.548555 214.016227) scale(0.08 -0.08)">
       <use xlink:href="#DejaVuSans-2b"/>
       <use xlink:href="#DejaVuSans-30" x="83.789062"/>
       <use xlink:href="#DejaVuSans-2e" x="147.412109"/>
       <use xlink:href="#DejaVuSans-32" x="179.199219"/>
       <use xlink:href="#DejaVuSans-30" x="242.822266"/>
      </g>
     </g>
    </g>
    <g id="ytick_6">
     <g id="line2d_16">
      <path d="M 359.265438 166.863656 
C 383.836498 166.863656 408.168635 171.703619 430.869335 181.106557 
C 453.570034 190.509495 474.197824 204.292543 491.572188 221.666906 
C 508.946551 239.04127 522.729599 259.66906 532.132537 282.369759 
C 541.535475 305.070459 546.375438 329.402596 546.375438 353.973656 
C 546.375438 378.544716 541.535475 402.876854 532.132537 425.577553 
C 522.729599 448.278253 508.946551 468.906043 491.572188 486.280406 
C 474.197824 503.654769 453.570034 517.437818 430.869335 526.840756 
C 408.168635 536.243693 383.836498 541.083656 359.265438 541.083656 
C 334.694378 541.083656 310.36224 536.243693 287.661541 526.840756 
C 264.960841 517.437818 244.333051 503.654769 226.958688 486.280406 
C 209.584325 468.906043 195.801276 448.278253 186.398338 425.577553 
C 176.995401 402.876854 172.155438 378.544716 172.155438 353.973656 
C 172.155438 329.402596 176.995401 305.070459 186.398338 282.369759 
C 195.801276 259.66906 209.584325 239.04127 226.958688 221.666906 
C 244.333051 204.292543 264.960841 190.509495 287.661541 181.106557 
C 310.36224 171.703619 334.694378 166.863656 359.265438 166.863656 
" clip-path="url(#p98e8ed8f7c)" style="fill: none; stroke: #b0b0b0; stroke-opacity: 0.38; stroke-width: 0.65; stroke-linecap: square"/>
     </g>
     <g id="text_6">
      <!-- +0.40 -->
      <g transform="translate(430.869335 179.442807) scale(0.08 -0.08)">
       <use xlink:href="#DejaVuSans-2b"/>
       <use xlink:href="#DejaVuSans-30" x="83.789062"/>
       <use xlink:href="#DejaVuSans-2e" x="147.412109"/>
       <use xlink:href="#DejaVuSans-34" x="179.199219"/>
       <use xlink:href="#DejaVuSans-30" x="242.822266"/>
      </g>
     </g>
    </g>
    <g id="ytick_7">
     <g id="line2d_17">
      <path d="M 359.265438 129.441656 
C 388.75071 129.441656 417.949275 135.249612 445.190114 146.533137 
C 472.430954 157.816662 497.184302 174.356321 518.033538 195.205556 
C 538.882773 216.054792 555.422432 240.80814 566.705957 268.04898 
C 577.989482 295.289819 583.797438 324.488384 583.797438 353.973656 
C 583.797438 383.458928 577.989482 412.657493 566.705957 439.898333 
C 555.422432 467.139172 538.882773 491.89252 518.033538 512.741756 
C 497.184302 533.590992 472.430954 550.13065 445.190114 561.414175 
C 417.949275 572.697701 388.75071 578.505656 359.265438 578.505656 
C 329.780166 578.505656 300.581601 572.697701 273.340761 561.414175 
C 246.099922 550.13065 221.346574 533.590992 200.497338 512.741756 
C 179.648102 491.89252 163.108444 467.139172 151.824919 439.898333 
C 140.541393 412.657493 134.733438 383.458928 134.733438 353.973656 
C 134.733438 324.488384 140.541393 295.289819 151.824919 268.04898 
C 163.108444 240.80814 179.648102 216.054792 200.497338 195.205556 
C 221.346574 174.356321 246.099922 157.816662 273.340761 146.533137 
C 300.581601 135.249612 329.780166 129.441656 359.265438 129.441656 
" clip-path="url(#p98e8ed8f7c)" style="fill: none; stroke: #b0b0b0; stroke-opacity: 0.38; stroke-width: 0.65; stroke-linecap: square"/>
     </g>
     <g id="text_7">
      <!-- +0.60 -->
      <g transform="translate(445.190114 144.869387) scale(0.08 -0.08)">
       <use xlink:href="#DejaVuSans-2b"/>
       <use xlink:href="#DejaVuSans-30" x="83.789062"/>
       <use xlink:href="#DejaVuSans-2e" x="147.412109"/>
       <use xlink:href="#DejaVuSans-36" x="179.199219"/>
       <use xlink:href="#DejaVuSans-30" x="242.822266"/>
      </g>
     </g>
    </g>
    <g id="ytick_8">
     <g id="line2d_18">
      <path d="M 359.265438 92.019656 
C 393.664922 92.019656 427.729914 98.795605 459.510894 111.959717 
C 491.291873 125.12383 520.170779 144.420098 544.494888 168.744206 
C 568.818996 193.068315 588.115264 221.947221 601.279377 253.7282 
C 614.443489 285.50918 621.219438 319.574172 621.219438 353.973656 
C 621.219438 388.37314 614.443489 422.438133 601.279377 454.219112 
C 588.115264 486.000091 568.818996 514.878998 544.494888 539.203106 
C 520.170779 563.527214 491.291873 582.823483 459.510894 595.987595 
C 427.729914 609.151708 393.664922 615.927656 359.265438 615.927656 
C 324.865954 615.927656 290.800961 609.151708 259.019982 595.987595 
C 227.239003 582.823483 198.360096 563.527214 174.035988 539.203106 
C 149.71188 514.878998 130.415611 486.000091 117.251499 454.219112 
C 104.087386 422.438133 97.311438 388.37314 97.311438 353.973656 
C 97.311438 319.574172 104.087386 285.50918 117.251499 253.7282 
C 130.415611 221.947221 149.71188 193.068315 174.035988 168.744206 
C 198.360096 144.420098 227.239003 125.12383 259.019982 111.959717 
C 290.800961 98.795605 324.865954 92.019656 359.265438 92.019656 
" clip-path="url(#p98e8ed8f7c)" style="fill: none; stroke: #b0b0b0; stroke-opacity: 0.38; stroke-width: 0.65; stroke-linecap: square"/>
     </g>
     <g id="text_8">
      <!-- +0.80 -->
      <g transform="translate(459.510894 110.295967) scale(0.08 -0.08)">
       <defs>
        <path id="DejaVuSans-38" d="M 2034 2216 
Q 1584 2216 1326 1975 
Q 1069 1734 1069 1313 
Q 1069 891 1326 650 
Q 1584 409 2034 409 
Q 2484 409 2743 651 
Q 3003 894 3003 1313 
Q 3003 1734 2745 1975 
Q 2488 2216 2034 2216 
z
M 1403 2484 
Q 997 2584 770 2862 
Q 544 3141 544 3541 
Q 544 4100 942 4425 
Q 1341 4750 2034 4750 
Q 2731 4750 3128 4425 
Q 3525 4100 3525 3541 
Q 3525 3141 3298 2862 
Q 3072 2584 2669 2484 
Q 3125 2378 3379 2068 
Q 3634 1759 3634 1313 
Q 3634 634 3220 271 
Q 2806 -91 2034 -91 
Q 1263 -91 848 271 
Q 434 634 434 1313 
Q 434 1759 690 2068 
Q 947 2378 1403 2484 
z
M 1172 3481 
Q 1172 3119 1398 2916 
Q 1625 2713 2034 2713 
Q 2441 2713 2670 2916 
Q 2900 3119 2900 3481 
Q 2900 3844 2670 4047 
Q 2441 4250 2034 4250 
Q 1625 4250 1398 4047 
Q 1172 3844 1172 3481 
z
" transform="scale(0.015625)"/>
       </defs>
       <use xlink:href="#DejaVuSans-2b"/>
       <use xlink:href="#DejaVuSans-30" x="83.789062"/>
       <use xlink:href="#DejaVuSans-2e" x="147.412109"/>
       <use xlink:href="#DejaVuSans-38" x="179.199219"/>
       <use xlink:href="#DejaVuSans-30" x="242.822266"/>
      </g>
     </g>
    </g>
    <g id="ytick_9">
     <g id="line2d_19">
      <path d="M 359.265438 54.597656 
C 398.579134 54.597656 437.510554 62.341597 473.831673 77.386297 
C 510.152792 92.430997 543.157256 114.483875 570.956237 142.282857 
C 598.755219 170.081838 620.808097 203.086302 635.852797 239.407421 
C 650.897497 275.72854 658.641438 314.65996 658.641438 353.973656 
C 658.641438 393.287352 650.897497 432.218772 635.852797 468.539891 
C 620.808097 504.861011 598.755219 537.865475 570.956237 565.664456 
C 543.157256 593.463437 510.152792 615.516315 473.831673 630.561015 
C 437.510554 645.605715 398.579134 653.349656 359.265438 653.349656 
C 319.951742 653.349656 281.020322 645.605715 244.699203 630.561015 
C 208.378083 615.516315 175.373619 593.463437 147.574638 565.664456 
C 119.775657 537.865475 97.722779 504.861011 82.678079 468.539891 
C 67.633379 432.218772 59.889438 393.287352 59.889438 353.973656 
C 59.889438 314.65996 67.633379 275.72854 82.678079 239.407421 
C 97.722779 203.086302 119.775657 170.081838 147.574638 142.282857 
C 175.373619 114.483875 208.378083 92.430997 244.699203 77.386297 
C 281.020322 62.341597 319.951742 54.597656 359.265438 54.597656 
" clip-path="url(#p98e8ed8f7c)" style="fill: none; stroke: #b0b0b0; stroke-opacity: 0.38; stroke-width: 0.65; stroke-linecap: square"/>
     </g>
     <g id="text_9">
      <!-- +1.00 -->
      <g transform="translate(473.831673 75.722547) scale(0.08 -0.08)">
       <defs>
        <path id="DejaVuSans-31" d="M 794 531 
L 1825 531 
L 1825 4091 
L 703 3866 
L 703 4441 
L 1819 4666 
L 2450 4666 
L 2450 531 
L 3481 531 
L 3481 0 
L 794 0 
L 794 531 
z
" transform="scale(0.015625)"/>
       </defs>
       <use xlink:href="#DejaVuSans-2b"/>
       <use xlink:href="#DejaVuSans-31" x="83.789062"/>
       <use xlink:href="#DejaVuSans-2e" x="147.412109"/>
       <use xlink:href="#DejaVuSans-30" x="179.199219"/>
       <use xlink:href="#DejaVuSans-30" x="242.822266"/>
      </g>
     </g>
    </g>
   </g>
   <g id="line2d_20">
    <path d="M 359.265438 241.707656 
L 364.784841 241.843415 
L 370.290895 242.250364 
L 375.770284 242.927518 
L 381.209755 243.87324 
L 386.596154 245.085242 
L 391.916452 246.560594 
L 397.157784 248.295726 
L 402.307471 250.286443 
L 407.353061 252.527931 
L 412.28235 255.014767 
L 417.083415 257.740937 
L 421.744647 260.699849 
L 426.254771 263.884345 
L 430.60288 267.286725 
L 434.778458 270.898759 
L 438.771406 274.711712 
L 442.572066 278.716362 
L 446.171248 282.903023 
L 449.560246 287.26157 
L 452.730863 291.781462 
L 455.675432 296.451767 
L 458.386832 301.261191 
L 460.858504 306.1981 
L 463.08447 311.250556 
L 465.059348 316.406339 
L 466.778361 321.65298 
L 468.237351 326.977788 
L 469.43279 332.367887 
L 470.361787 337.81024 
L 471.022094 343.291684 
L 471.412115 348.798963 
L 471.530907 354.318758 
L 471.378183 359.837717 
L 470.95431 365.342494 
L 470.260316 370.819776 
L 469.297878 376.256314 
L 468.069324 381.638962 
L 466.577625 386.9547 
L 464.826389 392.190673 
L 462.819851 397.334217 
L 460.562865 402.372892 
L 458.060888 407.294513 
L 455.319972 412.087176 
L 452.346746 416.739291 
L 449.1484 421.239604 
L 445.732671 425.577234 
L 442.107818 429.741689 
L 438.282609 433.722897 
L 434.266296 437.511229 
L 430.06859 441.097524 
L 425.699646 444.473108 
L 421.170029 447.629816 
L 416.490694 450.560015 
L 411.672959 453.256618 
L 406.728475 455.713102 
L 401.6692 457.923527 
L 396.507371 459.882547 
L 391.255471 461.585424 
L 385.926203 463.028039 
L 380.532455 464.206903 
L 375.087272 465.119166 
L 369.603824 465.762621 
L 364.095372 466.135711 
L 358.575239 466.237535 
L 353.056775 466.067845 
L 347.553326 465.627054 
L 342.078204 464.916226 
L 336.64465 463.937081 
L 331.265804 462.691986 
L 325.954676 461.183954 
L 320.724112 459.416631 
L 315.58676 457.394292 
L 310.555046 455.121827 
L 305.641139 452.604733 
L 300.856924 449.849098 
L 296.213972 446.861585 
L 291.723511 443.649421 
L 287.396401 440.220374 
L 283.243109 436.582737 
L 279.273678 432.745308 
L 275.49771 428.717368 
L 271.924336 424.508659 
L 268.562198 420.129359 
L 265.419428 415.59006 
L 262.503627 410.90174 
L 259.821847 406.075738 
L 257.380573 401.123726 
L 255.18571 396.057681 
L 253.242567 390.889854 
L 251.555843 385.632744 
L 250.129616 380.299067 
L 248.967338 374.90172 
L 248.071818 369.453759 
L 247.445222 363.968359 
L 247.089066 358.458786 
L 247.004211 352.938366 
L 247.190863 347.420449 
L 247.64857 341.918382 
L 248.376225 336.445471 
L 249.372068 331.014952 
L 250.633691 325.639959 
L 252.158043 320.333492 
L 253.941436 315.108385 
L 255.979557 309.977274 
L 258.267479 304.952569 
L 260.799666 300.046423 
L 263.569995 295.270701 
L 266.571765 290.636954 
L 269.797718 286.156389 
L 273.24005 281.83984 
L 276.890437 277.69775 
L 280.740049 273.740134 
L 284.779577 269.976565 
L 288.999251 266.416145 
L 293.388866 263.067485 
L 297.937804 259.938683 
L 302.635065 257.037308 
L 307.469288 254.370375 
L 312.428781 251.944335 
L 317.501549 249.765056 
L 322.675325 247.837808 
L 327.937594 246.167251 
L 333.275631 244.757427 
L 338.676525 243.611745 
L 344.127213 242.732976 
L 349.614514 242.123245 
L 355.125155 241.784027 
L 359.265438 241.707656 
L 359.265438 241.707656 
" clip-path="url(#p98e8ed8f7c)" style="fill: none; stroke-dasharray: 5.55,2.4; stroke-dashoffset: 0; stroke: #1f77b4; stroke-opacity: 0.75; stroke-width: 1.5"/>
   </g>
   <g id="line2d_21">
    <path d="M 359.265438 211.339703 
L 451.253127 227.363464 
L 512.17975 304.288784 
L 460.698183 386.931153 
L 435.052999 458.286286 
L 359.265438 511.819652 
L 293.277139 444.798758 
L 130.774833 428.214754 
L 253.383888 319.570655 
L 261.305808 219.143792 
L 359.265438 211.339703 
" clip-path="url(#p98e8ed8f7c)" style="fill: none; stroke: #ff7f0e; stroke-width: 2.5; stroke-linecap: square"/>
    <defs>
     <path id="mded9b4790b" d="M 0 2.25 
C 0.596707 2.25 1.169055 2.012926 1.59099 1.59099 
C 2.012926 1.169055 2.25 0.596707 2.25 0 
C 2.25 -0.596707 2.012926 -1.169055 1.59099 -1.59099 
C 1.169055 -2.012926 0.596707 -2.25 0 -2.25 
C -0.596707 -2.25 -1.169055 -2.012926 -1.59099 -1.59099 
C -2.012926 -1.169055 -2.25 -0.596707 -2.25 0 
C -2.25 0.596707 -2.012926 1.169055 -1.59099 1.59099 
C -1.169055 2.012926 -0.596707 2.25 0 2.25 
z
" style="stroke: #ff7f0e"/>
    </defs>
    <g clip-path="url(#p98e8ed8f7c)">
     <use xlink:href="#mded9b4790b" x="359.265438" y="211.339703" style="fill: #ff7f0e; stroke: #ff7f0e"/>
     <use xlink:href="#mded9b4790b" x="451.253127" y="227.363464" style="fill: #ff7f0e; stroke: #ff7f0e"/>
     <use xlink:href="#mded9b4790b" x="512.17975" y="304.288784" style="fill: #ff7f0e; stroke: #ff7f0e"/>
     <use xlink:href="#mded9b4790b" x="460.698183" y="386.931153" style="fill: #ff7f0e; stroke: #ff7f0e"/>
     <use xlink:href="#mded9b4790b" x="435.052999" y="458.286286" style="fill: #ff7f0e; stroke: #ff7f0e"/>
     <use xlink:href="#mded9b4790b" x="359.265438" y="511.819652" style="fill: #ff7f0e; stroke: #ff7f0e"/>
     <use xlink:href="#mded9b4790b" x="293.277139" y="444.798758" style="fill: #ff7f0e; stroke: #ff7f0e"/>
     <use xlink:href="#mded9b4790b" x="130.774833" y="428.214754" style="fill: #ff7f0e; stroke: #ff7f0e"/>
     <use xlink:href="#mded9b4790b" x="253.383888" y="319.570655" style="fill: #ff7f0e; stroke: #ff7f0e"/>
     <use xlink:href="#mded9b4790b" x="261.305808" y="219.143792" style="fill: #ff7f0e; stroke: #ff7f0e"/>
     <use xlink:href="#mded9b4790b" x="359.265438" y="211.339703" style="fill: #ff7f0e; stroke: #ff7f0e"/>
    </g>
   </g>
   <g id="line2d_22">
    <path d="M 359.265438 234.11099 
L 444.753279 236.309737 
L 498.993493 308.573259 
L 508.745273 402.542599 
L 473.898111 511.751996 
L 359.265438 549.802982 
L 296.279606 440.666216 
L 287.888816 377.165326 
L 222.900679 309.66606 
L 252.584354 207.139742 
L 359.265438 234.11099 
" clip-path="url(#p98e8ed8f7c)" style="fill: none; stroke: #2ca02c; stroke-width: 2.3; stroke-linecap: square"/>
    <defs>
     <path id="mb061c4002f" d="M -2.15 2.15 
L 2.15 2.15 
L 2.15 -2.15 
L -2.15 -2.15 
z
" style="stroke: #2ca02c; stroke-linejoin: miter"/>
    </defs>
    <g clip-path="url(#p98e8ed8f7c)">
     <use xlink:href="#mb061c4002f" x="359.265438" y="234.11099" style="fill: #2ca02c; stroke: #2ca02c; stroke-linejoin: miter"/>
     <use xlink:href="#mb061c4002f" x="444.753279" y="236.309737" style="fill: #2ca02c; stroke: #2ca02c; stroke-linejoin: miter"/>
     <use xlink:href="#mb061c4002f" x="498.993493" y="308.573259" style="fill: #2ca02c; stroke: #2ca02c; stroke-linejoin: miter"/>
     <use xlink:href="#mb061c4002f" x="508.745273" y="402.542599" style="fill: #2ca02c; stroke: #2ca02c; stroke-linejoin: miter"/>
     <use xlink:href="#mb061c4002f" x="473.898111" y="511.751996" style="fill: #2ca02c; stroke: #2ca02c; stroke-linejoin: miter"/>
     <use xlink:href="#mb061c4002f" x="359.265438" y="549.802982" style="fill: #2ca02c; stroke: #2ca02c; stroke-linejoin: miter"/>
     <use xlink:href="#mb061c4002f" x="296.279606" y="440.666216" style="fill: #2ca02c; stroke: #2ca02c; stroke-linejoin: miter"/>
     <use xlink:href="#mb061c4002f" x="287.888816" y="377.165326" style="fill: #2ca02c; stroke: #2ca02c; stroke-linejoin: miter"/>
     <use xlink:href="#mb061c4002f" x="222.900679" y="309.66606" style="fill: #2ca02c; stroke: #2ca02c; stroke-linejoin: miter"/>
     <use xlink:href="#mb061c4002f" x="252.584354" y="207.139742" style="fill: #2ca02c; stroke: #2ca02c; stroke-linejoin: miter"/>
     <use xlink:href="#mb061c4002f" x="359.265438" y="234.11099" style="fill: #2ca02c; stroke: #2ca02c; stroke-linejoin: miter"/>
    </g>
   </g>
   <g id="line2d_23">
    <path d="M 359.265438 226.514324 
L 444.753279 236.309737 
L 501.182305 307.862071 
L 556.792363 418.154045 
L 470.268755 506.756615 
L 359.265438 527.012984 
L 305.265013 428.298865 
L 298.957442 373.568912 
L 214.839445 307.046806 
L 264.209293 223.140097 
L 359.265438 226.514324 
" clip-path="url(#p98e8ed8f7c)" style="fill: none; stroke: #d62728; stroke-width: 2.3; stroke-linecap: square"/>
    <defs>
     <path id="mfbea7fab0d" d="M 0 -2.15 
L -2.15 2.15 
L 2.15 2.15 
z
" style="stroke: #d62728; stroke-linejoin: miter"/>
    </defs>
    <g clip-path="url(#p98e8ed8f7c)">
     <use xlink:href="#mfbea7fab0d" x="359.265438" y="226.514324" style="fill: #d62728; stroke: #d62728; stroke-linejoin: miter"/>
     <use xlink:href="#mfbea7fab0d" x="444.753279" y="236.309737" style="fill: #d62728; stroke: #d62728; stroke-linejoin: miter"/>
     <use xlink:href="#mfbea7fab0d" x="501.182305" y="307.862071" style="fill: #d62728; stroke: #d62728; stroke-linejoin: miter"/>
     <use xlink:href="#mfbea7fab0d" x="556.792363" y="418.154045" style="fill: #d62728; stroke: #d62728; stroke-linejoin: miter"/>
     <use xlink:href="#mfbea7fab0d" x="470.268755" y="506.756615" style="fill: #d62728; stroke: #d62728; stroke-linejoin: miter"/>
     <use xlink:href="#mfbea7fab0d" x="359.265438" y="527.012984" style="fill: #d62728; stroke: #d62728; stroke-linejoin: miter"/>
     <use xlink:href="#mfbea7fab0d" x="305.265013" y="428.298865" style="fill: #d62728; stroke: #d62728; stroke-linejoin: miter"/>
     <use xlink:href="#mfbea7fab0d" x="298.957442" y="373.568912" style="fill: #d62728; stroke: #d62728; stroke-linejoin: miter"/>
     <use xlink:href="#mfbea7fab0d" x="214.839445" y="307.046806" style="fill: #d62728; stroke: #d62728; stroke-linejoin: miter"/>
     <use xlink:href="#mfbea7fab0d" x="264.209293" y="223.140097" style="fill: #d62728; stroke: #d62728; stroke-linejoin: miter"/>
     <use xlink:href="#mfbea7fab0d" x="359.265438" y="226.514324" style="fill: #d62728; stroke: #d62728; stroke-linejoin: miter"/>
    </g>
   </g>
   <g id="patch_6">
    <path d="M 359.265438 54.597656 
C 319.951742 54.597656 281.020322 62.341597 244.699203 77.386297 
C 208.378083 92.430997 175.373619 114.483875 147.574638 142.282857 
C 119.775657 170.081838 97.722779 203.086302 82.678079 239.407421 
C 67.633379 275.72854 59.889438 314.65996 59.889438 353.973656 
C 59.889438 393.287352 67.633379 432.218772 82.678079 468.539891 
C 97.722779 504.861011 119.775657 537.865475 147.574638 565.664456 
C 175.373619 593.463437 208.378083 615.516315 244.699203 630.561015 
C 281.020322 645.605715 319.951742 653.349656 359.265438 653.349656 
C 398.579134 653.349656 437.510554 645.605715 473.831673 630.561015 
C 510.152792 615.516315 543.157256 593.463437 570.956237 565.664456 
C 598.755219 537.865475 620.808097 504.861011 635.852797 468.539891 
C 650.897497 432.218772 658.641438 393.287352 658.641438 353.973656 
C 658.641438 314.65996 650.897497 275.72854 635.852797 239.407421 
C 620.808097 203.086302 598.755219 170.081838 570.956237 142.282857 
C 543.157256 114.483875 510.152792 92.430997 473.831673 77.386297 
C 437.510554 62.341597 398.579134 54.597656 359.265438 54.597656 
" style="fill: none; stroke: #000000; stroke-width: 0.8; stroke-linejoin: miter; stroke-linecap: square"/>
   </g>
   <g id="text_10">
    <g id="patch_7">
     <path d="M 326.166219 37.086639 
L 392.364657 37.086639 
L 392.364657 24.208514 
L 326.166219 24.208514 
z
" style="fill: #ffffff; opacity: 0.9"/>
    </g>
    <!-- Caltech101 -->
    <g transform="translate(327.766219 33.406951) scale(0.1 -0.1)">
     <defs>
      <path id="DejaVuSans-Bold-43" d="M 4288 256 
Q 3956 84 3597 -3 
Q 3238 -91 2847 -91 
Q 1681 -91 1000 561 
Q 319 1213 319 2328 
Q 319 3447 1000 4098 
Q 1681 4750 2847 4750 
Q 3238 4750 3597 4662 
Q 3956 4575 4288 4403 
L 4288 3438 
Q 3953 3666 3628 3772 
Q 3303 3878 2944 3878 
Q 2300 3878 1931 3465 
Q 1563 3053 1563 2328 
Q 1563 1606 1931 1193 
Q 2300 781 2944 781 
Q 3303 781 3628 887 
Q 3953 994 4288 1222 
L 4288 256 
z
" transform="scale(0.015625)"/>
      <path id="DejaVuSans-Bold-61" d="M 2106 1575 
Q 1756 1575 1579 1456 
Q 1403 1338 1403 1106 
Q 1403 894 1545 773 
Q 1688 653 1941 653 
Q 2256 653 2472 879 
Q 2688 1106 2688 1447 
L 2688 1575 
L 2106 1575 
z
M 3816 1997 
L 3816 0 
L 2688 0 
L 2688 519 
Q 2463 200 2181 54 
Q 1900 -91 1497 -91 
Q 953 -91 614 226 
Q 275 544 275 1050 
Q 275 1666 698 1953 
Q 1122 2241 2028 2241 
L 2688 2241 
L 2688 2328 
Q 2688 2594 2478 2717 
Q 2269 2841 1825 2841 
Q 1466 2841 1156 2769 
Q 847 2697 581 2553 
L 581 3406 
Q 941 3494 1303 3539 
Q 1666 3584 2028 3584 
Q 2975 3584 3395 3211 
Q 3816 2838 3816 1997 
z
" transform="scale(0.015625)"/>
      <path id="DejaVuSans-Bold-6c" d="M 538 4863 
L 1656 4863 
L 1656 0 
L 538 0 
L 538 4863 
z
" transform="scale(0.015625)"/>
      <path id="DejaVuSans-Bold-74" d="M 1759 4494 
L 1759 3500 
L 2913 3500 
L 2913 2700 
L 1759 2700 
L 1759 1216 
Q 1759 972 1856 886 
Q 1953 800 2241 800 
L 2816 800 
L 2816 0 
L 1856 0 
Q 1194 0 917 276 
Q 641 553 641 1216 
L 641 2700 
L 84 2700 
L 84 3500 
L 641 3500 
L 641 4494 
L 1759 4494 
z
" transform="scale(0.015625)"/>
      <path id="DejaVuSans-Bold-65" d="M 4031 1759 
L 4031 1441 
L 1416 1441 
Q 1456 1047 1700 850 
Q 1944 653 2381 653 
Q 2734 653 3104 758 
Q 3475 863 3866 1075 
L 3866 213 
Q 3469 63 3072 -14 
Q 2675 -91 2278 -91 
Q 1328 -91 801 392 
Q 275 875 275 1747 
Q 275 2603 792 3093 
Q 1309 3584 2216 3584 
Q 3041 3584 3536 3087 
Q 4031 2591 4031 1759 
z
M 2881 2131 
Q 2881 2450 2695 2645 
Q 2509 2841 2209 2841 
Q 1884 2841 1681 2658 
Q 1478 2475 1428 2131 
L 2881 2131 
z
" transform="scale(0.015625)"/>
      <path id="DejaVuSans-Bold-63" d="M 3366 3391 
L 3366 2478 
Q 3138 2634 2908 2709 
Q 2678 2784 2431 2784 
Q 1963 2784 1702 2511 
Q 1441 2238 1441 1747 
Q 1441 1256 1702 982 
Q 1963 709 2431 709 
Q 2694 709 2930 787 
Q 3166 866 3366 1019 
L 3366 103 
Q 3103 6 2833 -42 
Q 2563 -91 2291 -91 
Q 1344 -91 809 395 
Q 275 881 275 1747 
Q 275 2613 809 3098 
Q 1344 3584 2291 3584 
Q 2566 3584 2833 3536 
Q 3100 3488 3366 3391 
z
" transform="scale(0.015625)"/>
      <path id="DejaVuSans-Bold-68" d="M 4056 2131 
L 4056 0 
L 2931 0 
L 2931 347 
L 2931 1625 
Q 2931 2084 2911 2256 
Q 2891 2428 2841 2509 
Q 2775 2619 2662 2680 
Q 2550 2741 2406 2741 
Q 2056 2741 1856 2470 
Q 1656 2200 1656 1722 
L 1656 0 
L 538 0 
L 538 4863 
L 1656 4863 
L 1656 2988 
Q 1909 3294 2193 3439 
Q 2478 3584 2822 3584 
Q 3428 3584 3742 3212 
Q 4056 2841 4056 2131 
z
" transform="scale(0.015625)"/>
      <path id="DejaVuSans-Bold-31" d="M 750 831 
L 1813 831 
L 1813 3847 
L 722 3622 
L 722 4441 
L 1806 4666 
L 2950 4666 
L 2950 831 
L 4013 831 
L 4013 0 
L 750 0 
L 750 831 
z
" transform="scale(0.015625)"/>
      <path id="DejaVuSans-Bold-30" d="M 2944 2338 
Q 2944 3213 2780 3570 
Q 2616 3928 2228 3928 
Q 1841 3928 1675 3570 
Q 1509 3213 1509 2338 
Q 1509 1453 1675 1090 
Q 1841 728 2228 728 
Q 2613 728 2778 1090 
Q 2944 1453 2944 2338 
z
M 4147 2328 
Q 4147 1169 3647 539 
Q 3147 -91 2228 -91 
Q 1306 -91 806 539 
Q 306 1169 306 2328 
Q 306 3491 806 4120 
Q 1306 4750 2228 4750 
Q 3147 4750 3647 4120 
Q 4147 3491 4147 2328 
z
" transform="scale(0.015625)"/>
     </defs>
     <use xlink:href="#DejaVuSans-Bold-43"/>
     <use xlink:href="#DejaVuSans-Bold-61" x="73.388672"/>
     <use xlink:href="#DejaVuSans-Bold-6c" x="140.869141"/>
     <use xlink:href="#DejaVuSans-Bold-74" x="175.146484"/>
     <use xlink:href="#DejaVuSans-Bold-65" x="222.949219"/>
     <use xlink:href="#DejaVuSans-Bold-63" x="290.771484"/>
     <use xlink:href="#DejaVuSans-Bold-68" x="350.048828"/>
     <use xlink:href="#DejaVuSans-Bold-31" x="421.240234"/>
     <use xlink:href="#DejaVuSans-Bold-30" x="490.820312"/>
     <use xlink:href="#DejaVuSans-Bold-31" x="560.400391"/>
    </g>
   </g>
   <g id="text_11">
    <g id="patch_8">
     <path d="M 547.711739 98.836425 
L 574.336739 98.836425 
L 574.336739 85.9583 
L 547.711739 85.9583 
z
" style="fill: #ffffff; opacity: 0.9"/>
    </g>
    <!-- DTD -->
    <g transform="translate(549.311739 95.156738) scale(0.1 -0.1)">
     <defs>
      <path id="DejaVuSans-Bold-44" d="M 1791 3756 
L 1791 909 
L 2222 909 
Q 2959 909 3348 1275 
Q 3738 1641 3738 2338 
Q 3738 3031 3350 3393 
Q 2963 3756 2222 3756 
L 1791 3756 
z
M 588 4666 
L 1856 4666 
Q 2919 4666 3439 4514 
Q 3959 4363 4331 4000 
Q 4659 3684 4818 3271 
Q 4978 2859 4978 2338 
Q 4978 1809 4818 1395 
Q 4659 981 4331 666 
Q 3956 303 3431 151 
Q 2906 0 1856 0 
L 588 0 
L 588 4666 
z
" transform="scale(0.015625)"/>
      <path id="DejaVuSans-Bold-54" d="M 31 4666 
L 4331 4666 
L 4331 3756 
L 2784 3756 
L 2784 0 
L 1581 0 
L 1581 3756 
L 31 3756 
L 31 4666 
z
" transform="scale(0.015625)"/>
     </defs>
     <use xlink:href="#DejaVuSans-Bold-44"/>
     <use xlink:href="#DejaVuSans-Bold-54" x="83.007812"/>
     <use xlink:href="#DejaVuSans-Bold-44" x="151.220703"/>
    </g>
   </g>
   <g id="text_12">
    <g id="patch_9">
     <path d="M 665.166813 260.499465 
L 715.105876 260.499465 
L 715.105876 247.62134 
L 665.166813 247.62134 
z
" style="fill: #ffffff; opacity: 0.9"/>
    </g>
    <!-- EuroSAT -->
    <g transform="translate(666.766813 256.819778) scale(0.1 -0.1)">
     <defs>
      <path id="DejaVuSans-Bold-45" d="M 588 4666 
L 3834 4666 
L 3834 3756 
L 1791 3756 
L 1791 2888 
L 3713 2888 
L 3713 1978 
L 1791 1978 
L 1791 909 
L 3903 909 
L 3903 0 
L 588 0 
L 588 4666 
z
" transform="scale(0.015625)"/>
      <path id="DejaVuSans-Bold-75" d="M 500 1363 
L 500 3500 
L 1625 3500 
L 1625 3150 
Q 1625 2866 1622 2436 
Q 1619 2006 1619 1863 
Q 1619 1441 1641 1255 
Q 1663 1069 1716 984 
Q 1784 875 1895 815 
Q 2006 756 2150 756 
Q 2500 756 2700 1025 
Q 2900 1294 2900 1772 
L 2900 3500 
L 4019 3500 
L 4019 0 
L 2900 0 
L 2900 506 
Q 2647 200 2364 54 
Q 2081 -91 1741 -91 
Q 1134 -91 817 281 
Q 500 653 500 1363 
z
" transform="scale(0.015625)"/>
      <path id="DejaVuSans-Bold-72" d="M 3138 2547 
Q 2991 2616 2845 2648 
Q 2700 2681 2553 2681 
Q 2122 2681 1889 2404 
Q 1656 2128 1656 1613 
L 1656 0 
L 538 0 
L 538 3500 
L 1656 3500 
L 1656 2925 
Q 1872 3269 2151 3426 
Q 2431 3584 2822 3584 
Q 2878 3584 2943 3579 
Q 3009 3575 3134 3559 
L 3138 2547 
z
" transform="scale(0.015625)"/>
      <path id="DejaVuSans-Bold-6f" d="M 2203 2784 
Q 1831 2784 1636 2517 
Q 1441 2250 1441 1747 
Q 1441 1244 1636 976 
Q 1831 709 2203 709 
Q 2569 709 2762 976 
Q 2956 1244 2956 1747 
Q 2956 2250 2762 2517 
Q 2569 2784 2203 2784 
z
M 2203 3584 
Q 3106 3584 3614 3096 
Q 4122 2609 4122 1747 
Q 4122 884 3614 396 
Q 3106 -91 2203 -91 
Q 1297 -91 786 396 
Q 275 884 275 1747 
Q 275 2609 786 3096 
Q 1297 3584 2203 3584 
z
" transform="scale(0.015625)"/>
      <path id="DejaVuSans-Bold-53" d="M 3834 4519 
L 3834 3531 
Q 3450 3703 3084 3790 
Q 2719 3878 2394 3878 
Q 1963 3878 1756 3759 
Q 1550 3641 1550 3391 
Q 1550 3203 1689 3098 
Q 1828 2994 2194 2919 
L 2706 2816 
Q 3484 2659 3812 2340 
Q 4141 2022 4141 1434 
Q 4141 663 3683 286 
Q 3225 -91 2284 -91 
Q 1841 -91 1394 -6 
Q 947 78 500 244 
L 500 1259 
Q 947 1022 1364 901 
Q 1781 781 2169 781 
Q 2563 781 2772 912 
Q 2981 1044 2981 1288 
Q 2981 1506 2839 1625 
Q 2697 1744 2272 1838 
L 1806 1941 
Q 1106 2091 782 2419 
Q 459 2747 459 3303 
Q 459 4000 909 4375 
Q 1359 4750 2203 4750 
Q 2588 4750 2994 4692 
Q 3400 4634 3834 4519 
z
" transform="scale(0.015625)"/>
      <path id="DejaVuSans-Bold-41" d="M 3419 850 
L 1538 850 
L 1241 0 
L 31 0 
L 1759 4666 
L 3194 4666 
L 4922 0 
L 3713 0 
L 3419 850 
z
M 1838 1716 
L 3116 1716 
L 2478 3572 
L 1838 1716 
z
" transform="scale(0.015625)"/>
     </defs>
     <use xlink:href="#DejaVuSans-Bold-45"/>
     <use xlink:href="#DejaVuSans-Bold-75" x="68.310547"/>
     <use xlink:href="#DejaVuSans-Bold-72" x="139.501953"/>
     <use xlink:href="#DejaVuSans-Bold-6f" x="188.818359"/>
     <use xlink:href="#DejaVuSans-Bold-53" x="257.519531"/>
     <use xlink:href="#DejaVuSans-Bold-41" x="329.541016"/>
     <use xlink:href="#DejaVuSans-Bold-54" x="399.183594"/>
    </g>
   </g>
   <g id="text_13">
    <g id="patch_10">
     <path d="M 665.166813 460.325972 
L 698.484001 460.325972 
L 698.484001 447.447847 
L 665.166813 447.447847 
z
" style="fill: #ffffff; opacity: 0.9"/>
    </g>
    <!-- FGVC -->
    <g transform="translate(666.766813 456.646285) scale(0.1 -0.1)">
     <defs>
      <path id="DejaVuSans-Bold-46" d="M 588 4666 
L 3834 4666 
L 3834 3756 
L 1791 3756 
L 1791 2888 
L 3713 2888 
L 3713 1978 
L 1791 1978 
L 1791 0 
L 588 0 
L 588 4666 
z
" transform="scale(0.015625)"/>
      <path id="DejaVuSans-Bold-47" d="M 4781 347 
Q 4331 128 3847 18 
Q 3363 -91 2847 -91 
Q 1681 -91 1000 561 
Q 319 1213 319 2328 
Q 319 3456 1012 4103 
Q 1706 4750 2913 4750 
Q 3378 4750 3804 4662 
Q 4231 4575 4609 4403 
L 4609 3438 
Q 4219 3659 3833 3768 
Q 3447 3878 3059 3878 
Q 2341 3878 1952 3476 
Q 1563 3075 1563 2328 
Q 1563 1588 1938 1184 
Q 2313 781 3003 781 
Q 3191 781 3352 804 
Q 3513 828 3641 878 
L 3641 1784 
L 2906 1784 
L 2906 2591 
L 4781 2591 
L 4781 347 
z
" transform="scale(0.015625)"/>
      <path id="DejaVuSans-Bold-56" d="M 31 4666 
L 1241 4666 
L 2478 1222 
L 3713 4666 
L 4922 4666 
L 3194 0 
L 1759 0 
L 31 4666 
z
" transform="scale(0.015625)"/>
     </defs>
     <use xlink:href="#DejaVuSans-Bold-46"/>
     <use xlink:href="#DejaVuSans-Bold-47" x="68.310547"/>
     <use xlink:href="#DejaVuSans-Bold-56" x="150.390625"/>
     <use xlink:href="#DejaVuSans-Bold-43" x="227.783203"/>
    </g>
   </g>
   <g id="text_14">
    <g id="patch_11">
     <path d="M 547.711739 621.989012 
L 599.114864 621.989012 
L 599.114864 609.110887 
L 547.711739 609.110887 
z
" style="fill: #ffffff; opacity: 0.9"/>
    </g>
    <!-- Food101 -->
    <g transform="translate(549.311739 618.309325) scale(0.1 -0.1)">
     <defs>
      <path id="DejaVuSans-Bold-64" d="M 2919 2988 
L 2919 4863 
L 4044 4863 
L 4044 0 
L 2919 0 
L 2919 506 
Q 2688 197 2409 53 
Q 2131 -91 1766 -91 
Q 1119 -91 703 423 
Q 288 938 288 1747 
Q 288 2556 703 3070 
Q 1119 3584 1766 3584 
Q 2128 3584 2408 3439 
Q 2688 3294 2919 2988 
z
M 2181 722 
Q 2541 722 2730 984 
Q 2919 1247 2919 1747 
Q 2919 2247 2730 2509 
Q 2541 2772 2181 2772 
Q 1825 2772 1636 2509 
Q 1447 2247 1447 1747 
Q 1447 1247 1636 984 
Q 1825 722 2181 722 
z
" transform="scale(0.015625)"/>
     </defs>
     <use xlink:href="#DejaVuSans-Bold-46"/>
     <use xlink:href="#DejaVuSans-Bold-6f" x="64.310547"/>
     <use xlink:href="#DejaVuSans-Bold-6f" x="133.011719"/>
     <use xlink:href="#DejaVuSans-Bold-64" x="201.712891"/>
     <use xlink:href="#DejaVuSans-Bold-31" x="273.294922"/>
     <use xlink:href="#DejaVuSans-Bold-30" x="342.875"/>
     <use xlink:href="#DejaVuSans-Bold-31" x="412.455078"/>
    </g>
   </g>
   <g id="text_15">
    <g id="patch_12">
     <path d="M 335.64825 683.738799 
L 382.882625 683.738799 
L 382.882625 670.860674 
L 335.64825 670.860674 
z
" style="fill: #ffffff; opacity: 0.9"/>
    </g>
    <!-- Flowers -->
    <g transform="translate(337.24825 680.059111) scale(0.1 -0.1)">
     <defs>
      <path id="DejaVuSans-Bold-77" d="M 225 3500 
L 1313 3500 
L 1900 1088 
L 2491 3500 
L 3425 3500 
L 4013 1113 
L 4603 3500 
L 5691 3500 
L 4769 0 
L 3547 0 
L 2956 2406 
L 2369 0 
L 1147 0 
L 225 3500 
z
" transform="scale(0.015625)"/>
      <path id="DejaVuSans-Bold-73" d="M 3272 3391 
L 3272 2541 
Q 2913 2691 2578 2766 
Q 2244 2841 1947 2841 
Q 1628 2841 1473 2761 
Q 1319 2681 1319 2516 
Q 1319 2381 1436 2309 
Q 1553 2238 1856 2203 
L 2053 2175 
Q 2913 2066 3209 1816 
Q 3506 1566 3506 1031 
Q 3506 472 3093 190 
Q 2681 -91 1863 -91 
Q 1516 -91 1145 -36 
Q 775 19 384 128 
L 384 978 
Q 719 816 1070 734 
Q 1422 653 1784 653 
Q 2113 653 2278 743 
Q 2444 834 2444 1013 
Q 2444 1163 2330 1236 
Q 2216 1309 1875 1350 
L 1678 1375 
Q 931 1469 631 1722 
Q 331 1975 331 2491 
Q 331 3047 712 3315 
Q 1094 3584 1881 3584 
Q 2191 3584 2531 3537 
Q 2872 3491 3272 3391 
z
" transform="scale(0.015625)"/>
     </defs>
     <use xlink:href="#DejaVuSans-Bold-46"/>
     <use xlink:href="#DejaVuSans-Bold-6c" x="68.310547"/>
     <use xlink:href="#DejaVuSans-Bold-6f" x="102.587891"/>
     <use xlink:href="#DejaVuSans-Bold-77" x="171.289062"/>
     <use xlink:href="#DejaVuSans-Bold-65" x="263.671875"/>
     <use xlink:href="#DejaVuSans-Bold-72" x="331.494141"/>
     <use xlink:href="#DejaVuSans-Bold-73" x="380.810547"/>
    </g>
   </g>
   <g id="text_16">
    <g id="patch_13">
     <path d="M 142.775386 621.989012 
L 170.819136 621.989012 
L 170.819136 609.110887 
L 142.775386 609.110887 
z
" style="fill: #ffffff; opacity: 0.9"/>
    </g>
    <!-- Pets -->
    <g transform="translate(144.375386 618.309325) scale(0.1 -0.1)">
     <defs>
      <path id="DejaVuSans-Bold-50" d="M 588 4666 
L 2584 4666 
Q 3475 4666 3951 4270 
Q 4428 3875 4428 3144 
Q 4428 2409 3951 2014 
Q 3475 1619 2584 1619 
L 1791 1619 
L 1791 0 
L 588 0 
L 588 4666 
z
M 1791 3794 
L 1791 2491 
L 2456 2491 
Q 2806 2491 2997 2661 
Q 3188 2831 3188 3144 
Q 3188 3456 2997 3625 
Q 2806 3794 2456 3794 
L 1791 3794 
z
" transform="scale(0.015625)"/>
     </defs>
     <use xlink:href="#DejaVuSans-Bold-50"/>
     <use xlink:href="#DejaVuSans-Bold-65" x="73.291016"/>
     <use xlink:href="#DejaVuSans-Bold-74" x="141.113281"/>
     <use xlink:href="#DejaVuSans-Bold-73" x="188.916016"/>
    </g>
   </g>
   <g id="text_17">
    <g id="patch_14">
     <path d="M 25.19375 460.325972 
L 53.364063 460.325972 
L 53.364063 447.447847 
L 25.19375 447.447847 
z
" style="fill: #ffffff; opacity: 0.9"/>
    </g>
    <!-- Cars -->
    <g transform="translate(26.79375 456.646285) scale(0.1 -0.1)">
     <use xlink:href="#DejaVuSans-Bold-43"/>
     <use xlink:href="#DejaVuSans-Bold-61" x="73.388672"/>
     <use xlink:href="#DejaVuSans-Bold-72" x="140.869141"/>
     <use xlink:href="#DejaVuSans-Bold-73" x="190.185547"/>
    </g>
   </g>
   <g id="text_18">
    <g id="patch_15">
     <path d="M 5.6 260.499465 
L 53.364063 260.499465 
L 53.364063 247.62134 
L 5.6 247.62134 
z
" style="fill: #ffffff; opacity: 0.9"/>
    </g>
    <!-- SUN397 -->
    <g transform="translate(7.2 256.819778) scale(0.1 -0.1)">
     <defs>
      <path id="DejaVuSans-Bold-55" d="M 588 4666 
L 1791 4666 
L 1791 1869 
Q 1791 1291 1980 1042 
Q 2169 794 2597 794 
Q 3028 794 3217 1042 
Q 3406 1291 3406 1869 
L 3406 4666 
L 4609 4666 
L 4609 1869 
Q 4609 878 4112 393 
Q 3616 -91 2597 -91 
Q 1581 -91 1084 393 
Q 588 878 588 1869 
L 588 4666 
z
" transform="scale(0.015625)"/>
      <path id="DejaVuSans-Bold-4e" d="M 588 4666 
L 1931 4666 
L 3628 1466 
L 3628 4666 
L 4769 4666 
L 4769 0 
L 3425 0 
L 1728 3200 
L 1728 0 
L 588 0 
L 588 4666 
z
" transform="scale(0.015625)"/>
      <path id="DejaVuSans-Bold-33" d="M 2981 2516 
Q 3453 2394 3698 2092 
Q 3944 1791 3944 1325 
Q 3944 631 3412 270 
Q 2881 -91 1863 -91 
Q 1503 -91 1142 -33 
Q 781 25 428 141 
L 428 1069 
Q 766 900 1098 814 
Q 1431 728 1753 728 
Q 2231 728 2486 893 
Q 2741 1059 2741 1369 
Q 2741 1688 2480 1852 
Q 2219 2016 1709 2016 
L 1228 2016 
L 1228 2791 
L 1734 2791 
Q 2188 2791 2409 2933 
Q 2631 3075 2631 3366 
Q 2631 3634 2415 3781 
Q 2200 3928 1806 3928 
Q 1516 3928 1219 3862 
Q 922 3797 628 3669 
L 628 4550 
Q 984 4650 1334 4700 
Q 1684 4750 2022 4750 
Q 2931 4750 3382 4451 
Q 3834 4153 3834 3553 
Q 3834 3144 3618 2883 
Q 3403 2622 2981 2516 
z
" transform="scale(0.015625)"/>
      <path id="DejaVuSans-Bold-39" d="M 641 103 
L 641 966 
Q 928 831 1190 764 
Q 1453 697 1709 697 
Q 2247 697 2547 995 
Q 2847 1294 2900 1881 
Q 2688 1725 2447 1647 
Q 2206 1569 1925 1569 
Q 1209 1569 770 1986 
Q 331 2403 331 3084 
Q 331 3838 820 4291 
Q 1309 4744 2131 4744 
Q 3044 4744 3544 4128 
Q 4044 3513 4044 2388 
Q 4044 1231 3459 570 
Q 2875 -91 1856 -91 
Q 1528 -91 1228 -42 
Q 928 6 641 103 
z
M 2125 2350 
Q 2441 2350 2600 2554 
Q 2759 2759 2759 3169 
Q 2759 3575 2600 3781 
Q 2441 3988 2125 3988 
Q 1809 3988 1650 3781 
Q 1491 3575 1491 3169 
Q 1491 2759 1650 2554 
Q 1809 2350 2125 2350 
z
" transform="scale(0.015625)"/>
      <path id="DejaVuSans-Bold-37" d="M 428 4666 
L 3944 4666 
L 3944 3988 
L 2125 0 
L 953 0 
L 2675 3781 
L 428 3781 
L 428 4666 
z
" transform="scale(0.015625)"/>
     </defs>
     <use xlink:href="#DejaVuSans-Bold-53"/>
     <use xlink:href="#DejaVuSans-Bold-55" x="72.021484"/>
     <use xlink:href="#DejaVuSans-Bold-4e" x="153.222656"/>
     <use xlink:href="#DejaVuSans-Bold-33" x="236.914062"/>
     <use xlink:href="#DejaVuSans-Bold-39" x="306.494141"/>
     <use xlink:href="#DejaVuSans-Bold-37" x="376.074219"/>
    </g>
   </g>
   <g id="text_19">
    <g id="patch_16">
     <path d="M 124.455074 98.836425 
L 170.819136 98.836425 
L 170.819136 85.9583 
L 124.455074 85.9583 
z
" style="fill: #ffffff; opacity: 0.9"/>
    </g>
    <!-- UCF101 -->
    <g transform="translate(126.055074 95.156738) scale(0.1 -0.1)">
     <use xlink:href="#DejaVuSans-Bold-55"/>
     <use xlink:href="#DejaVuSans-Bold-43" x="81.201172"/>
     <use xlink:href="#DejaVuSans-Bold-46" x="154.589844"/>
     <use xlink:href="#DejaVuSans-Bold-31" x="222.900391"/>
     <use xlink:href="#DejaVuSans-Bold-30" x="292.480469"/>
     <use xlink:href="#DejaVuSans-Bold-31" x="362.060547"/>
    </g>
   </g>
   <g id="text_20">
    <!-- Δ accuracy; radial ticks are shifted for visualization, labels show real deltas. -->
    <g transform="translate(188.579032 715.708294) scale(0.09 -0.09)">
     <defs>
      <path id="DejaVuSans-394" d="M 2188 4044 
L 906 525 
L 3472 525 
L 2188 4044 
z
M 50 0 
L 1831 4666 
L 2547 4666 
L 4325 0 
L 50 0 
z
" transform="scale(0.015625)"/>
      <path id="DejaVuSans-20" transform="scale(0.015625)"/>
      <path id="DejaVuSans-61" d="M 2194 1759 
Q 1497 1759 1228 1600 
Q 959 1441 959 1056 
Q 959 750 1161 570 
Q 1363 391 1709 391 
Q 2188 391 2477 730 
Q 2766 1069 2766 1631 
L 2766 1759 
L 2194 1759 
z
M 3341 1997 
L 3341 0 
L 2766 0 
L 2766 531 
Q 2569 213 2275 61 
Q 1981 -91 1556 -91 
Q 1019 -91 701 211 
Q 384 513 384 1019 
Q 384 1609 779 1909 
Q 1175 2209 1959 2209 
L 2766 2209 
L 2766 2266 
Q 2766 2663 2505 2880 
Q 2244 3097 1772 3097 
Q 1472 3097 1187 3025 
Q 903 2953 641 2809 
L 641 3341 
Q 956 3463 1253 3523 
Q 1550 3584 1831 3584 
Q 2591 3584 2966 3190 
Q 3341 2797 3341 1997 
z
" transform="scale(0.015625)"/>
      <path id="DejaVuSans-63" d="M 3122 3366 
L 3122 2828 
Q 2878 2963 2633 3030 
Q 2388 3097 2138 3097 
Q 1578 3097 1268 2742 
Q 959 2388 959 1747 
Q 959 1106 1268 751 
Q 1578 397 2138 397 
Q 2388 397 2633 464 
Q 2878 531 3122 666 
L 3122 134 
Q 2881 22 2623 -34 
Q 2366 -91 2075 -91 
Q 1284 -91 818 406 
Q 353 903 353 1747 
Q 353 2603 823 3093 
Q 1294 3584 2113 3584 
Q 2378 3584 2631 3529 
Q 2884 3475 3122 3366 
z
" transform="scale(0.015625)"/>
      <path id="DejaVuSans-75" d="M 544 1381 
L 544 3500 
L 1119 3500 
L 1119 1403 
Q 1119 906 1312 657 
Q 1506 409 1894 409 
Q 2359 409 2629 706 
Q 2900 1003 2900 1516 
L 2900 3500 
L 3475 3500 
L 3475 0 
L 2900 0 
L 2900 538 
Q 2691 219 2414 64 
Q 2138 -91 1772 -91 
Q 1169 -91 856 284 
Q 544 659 544 1381 
z
M 1991 3584 
L 1991 3584 
z
" transform="scale(0.015625)"/>
      <path id="DejaVuSans-72" d="M 2631 2963 
Q 2534 3019 2420 3045 
Q 2306 3072 2169 3072 
Q 1681 3072 1420 2755 
Q 1159 2438 1159 1844 
L 1159 0 
L 581 0 
L 581 3500 
L 1159 3500 
L 1159 2956 
Q 1341 3275 1631 3429 
Q 1922 3584 2338 3584 
Q 2397 3584 2469 3576 
Q 2541 3569 2628 3553 
L 2631 2963 
z
" transform="scale(0.015625)"/>
      <path id="DejaVuSans-79" d="M 2059 -325 
Q 1816 -950 1584 -1140 
Q 1353 -1331 966 -1331 
L 506 -1331 
L 506 -850 
L 844 -850 
Q 1081 -850 1212 -737 
Q 1344 -625 1503 -206 
L 1606 56 
L 191 3500 
L 800 3500 
L 1894 763 
L 2988 3500 
L 3597 3500 
L 2059 -325 
z
" transform="scale(0.015625)"/>
      <path id="DejaVuSans-3b" d="M 750 3309 
L 1409 3309 
L 1409 2516 
L 750 2516 
L 750 3309 
z
M 750 794 
L 1409 794 
L 1409 256 
L 897 -744 
L 494 -744 
L 750 256 
L 750 794 
z
" transform="scale(0.015625)"/>
      <path id="DejaVuSans-64" d="M 2906 2969 
L 2906 4863 
L 3481 4863 
L 3481 0 
L 2906 0 
L 2906 525 
Q 2725 213 2448 61 
Q 2172 -91 1784 -91 
Q 1150 -91 751 415 
Q 353 922 353 1747 
Q 353 2572 751 3078 
Q 1150 3584 1784 3584 
Q 2172 3584 2448 3432 
Q 2725 3281 2906 2969 
z
M 947 1747 
Q 947 1113 1208 752 
Q 1469 391 1925 391 
Q 2381 391 2643 752 
Q 2906 1113 2906 1747 
Q 2906 2381 2643 2742 
Q 2381 3103 1925 3103 
Q 1469 3103 1208 2742 
Q 947 2381 947 1747 
z
" transform="scale(0.015625)"/>
      <path id="DejaVuSans-69" d="M 603 3500 
L 1178 3500 
L 1178 0 
L 603 0 
L 603 3500 
z
M 603 4863 
L 1178 4863 
L 1178 4134 
L 603 4134 
L 603 4863 
z
" transform="scale(0.015625)"/>
      <path id="DejaVuSans-6c" d="M 603 4863 
L 1178 4863 
L 1178 0 
L 603 0 
L 603 4863 
z
" transform="scale(0.015625)"/>
      <path id="DejaVuSans-74" d="M 1172 4494 
L 1172 3500 
L 2356 3500 
L 2356 3053 
L 1172 3053 
L 1172 1153 
Q 1172 725 1289 603 
Q 1406 481 1766 481 
L 2356 481 
L 2356 0 
L 1766 0 
Q 1100 0 847 248 
Q 594 497 594 1153 
L 594 3053 
L 172 3053 
L 172 3500 
L 594 3500 
L 594 4494 
L 1172 4494 
z
" transform="scale(0.015625)"/>
      <path id="DejaVuSans-6b" d="M 581 4863 
L 1159 4863 
L 1159 1991 
L 2875 3500 
L 3609 3500 
L 1753 1863 
L 3688 0 
L 2938 0 
L 1159 1709 
L 1159 0 
L 581 0 
L 581 4863 
z
" transform="scale(0.015625)"/>
      <path id="DejaVuSans-73" d="M 2834 3397 
L 2834 2853 
Q 2591 2978 2328 3040 
Q 2066 3103 1784 3103 
Q 1356 3103 1142 2972 
Q 928 2841 928 2578 
Q 928 2378 1081 2264 
Q 1234 2150 1697 2047 
L 1894 2003 
Q 2506 1872 2764 1633 
Q 3022 1394 3022 966 
Q 3022 478 2636 193 
Q 2250 -91 1575 -91 
Q 1294 -91 989 -36 
Q 684 19 347 128 
L 347 722 
Q 666 556 975 473 
Q 1284 391 1588 391 
Q 1994 391 2212 530 
Q 2431 669 2431 922 
Q 2431 1156 2273 1281 
Q 2116 1406 1581 1522 
L 1381 1569 
Q 847 1681 609 1914 
Q 372 2147 372 2553 
Q 372 3047 722 3315 
Q 1072 3584 1716 3584 
Q 2034 3584 2315 3537 
Q 2597 3491 2834 3397 
z
" transform="scale(0.015625)"/>
      <path id="DejaVuSans-65" d="M 3597 1894 
L 3597 1613 
L 953 1613 
Q 991 1019 1311 708 
Q 1631 397 2203 397 
Q 2534 397 2845 478 
Q 3156 559 3463 722 
L 3463 178 
Q 3153 47 2828 -22 
Q 2503 -91 2169 -91 
Q 1331 -91 842 396 
Q 353 884 353 1716 
Q 353 2575 817 3079 
Q 1281 3584 2069 3584 
Q 2775 3584 3186 3129 
Q 3597 2675 3597 1894 
z
M 3022 2063 
Q 3016 2534 2758 2815 
Q 2500 3097 2075 3097 
Q 1594 3097 1305 2825 
Q 1016 2553 972 2059 
L 3022 2063 
z
" transform="scale(0.015625)"/>
      <path id="DejaVuSans-68" d="M 3513 2113 
L 3513 0 
L 2938 0 
L 2938 2094 
Q 2938 2591 2744 2837 
Q 2550 3084 2163 3084 
Q 1697 3084 1428 2787 
Q 1159 2491 1159 1978 
L 1159 0 
L 581 0 
L 581 4863 
L 1159 4863 
L 1159 2956 
Q 1366 3272 1645 3428 
Q 1925 3584 2291 3584 
Q 2894 3584 3203 3211 
Q 3513 2838 3513 2113 
z
" transform="scale(0.015625)"/>
      <path id="DejaVuSans-66" d="M 2375 4863 
L 2375 4384 
L 1825 4384 
Q 1516 4384 1395 4259 
Q 1275 4134 1275 3809 
L 1275 3500 
L 2222 3500 
L 2222 3053 
L 1275 3053 
L 1275 0 
L 697 0 
L 697 3053 
L 147 3053 
L 147 3500 
L 697 3500 
L 697 3744 
Q 697 4328 969 4595 
Q 1241 4863 1831 4863 
L 2375 4863 
z
" transform="scale(0.015625)"/>
      <path id="DejaVuSans-6f" d="M 1959 3097 
Q 1497 3097 1228 2736 
Q 959 2375 959 1747 
Q 959 1119 1226 758 
Q 1494 397 1959 397 
Q 2419 397 2687 759 
Q 2956 1122 2956 1747 
Q 2956 2369 2687 2733 
Q 2419 3097 1959 3097 
z
M 1959 3584 
Q 2709 3584 3137 3096 
Q 3566 2609 3566 1747 
Q 3566 888 3137 398 
Q 2709 -91 1959 -91 
Q 1206 -91 779 398 
Q 353 888 353 1747 
Q 353 2609 779 3096 
Q 1206 3584 1959 3584 
z
" transform="scale(0.015625)"/>
      <path id="DejaVuSans-76" d="M 191 3500 
L 800 3500 
L 1894 563 
L 2988 3500 
L 3597 3500 
L 2284 0 
L 1503 0 
L 191 3500 
z
" transform="scale(0.015625)"/>
      <path id="DejaVuSans-7a" d="M 353 3500 
L 3084 3500 
L 3084 2975 
L 922 459 
L 3084 459 
L 3084 0 
L 275 0 
L 275 525 
L 2438 3041 
L 353 3041 
L 353 3500 
z
" transform="scale(0.015625)"/>
      <path id="DejaVuSans-6e" d="M 3513 2113 
L 3513 0 
L 2938 0 
L 2938 2094 
Q 2938 2591 2744 2837 
Q 2550 3084 2163 3084 
Q 1697 3084 1428 2787 
Q 1159 2491 1159 1978 
L 1159 0 
L 581 0 
L 581 3500 
L 1159 3500 
L 1159 2956 
Q 1366 3272 1645 3428 
Q 1925 3584 2291 3584 
Q 2894 3584 3203 3211 
Q 3513 2838 3513 2113 
z
" transform="scale(0.015625)"/>
      <path id="DejaVuSans-2c" d="M 750 794 
L 1409 794 
L 1409 256 
L 897 -744 
L 494 -744 
L 750 256 
L 750 794 
z
" transform="scale(0.015625)"/>
      <path id="DejaVuSans-62" d="M 3116 1747 
Q 3116 2381 2855 2742 
Q 2594 3103 2138 3103 
Q 1681 3103 1420 2742 
Q 1159 2381 1159 1747 
Q 1159 1113 1420 752 
Q 1681 391 2138 391 
Q 2594 391 2855 752 
Q 3116 1113 3116 1747 
z
M 1159 2969 
Q 1341 3281 1617 3432 
Q 1894 3584 2278 3584 
Q 2916 3584 3314 3078 
Q 3713 2572 3713 1747 
Q 3713 922 3314 415 
Q 2916 -91 2278 -91 
Q 1894 -91 1617 61 
Q 1341 213 1159 525 
L 1159 0 
L 581 0 
L 581 4863 
L 1159 4863 
L 1159 2969 
z
" transform="scale(0.015625)"/>
      <path id="DejaVuSans-77" d="M 269 3500 
L 844 3500 
L 1563 769 
L 2278 3500 
L 2956 3500 
L 3675 769 
L 4391 3500 
L 4966 3500 
L 4050 0 
L 3372 0 
L 2619 2869 
L 1863 0 
L 1184 0 
L 269 3500 
z
" transform="scale(0.015625)"/>
     </defs>
     <use xlink:href="#DejaVuSans-394"/>
     <use xlink:href="#DejaVuSans-20" x="68.408203"/>
     <use xlink:href="#DejaVuSans-61" x="100.195312"/>
     <use xlink:href="#DejaVuSans-63" x="161.474609"/>
     <use xlink:href="#DejaVuSans-63" x="216.455078"/>
     <use xlink:href="#DejaVuSans-75" x="271.435547"/>
     <use xlink:href="#DejaVuSans-72" x="334.814453"/>
     <use xlink:href="#DejaVuSans-61" x="375.927734"/>
     <use xlink:href="#DejaVuSans-63" x="437.207031"/>
     <use xlink:href="#DejaVuSans-79" x="492.1875"/>
     <use xlink:href="#DejaVuSans-3b" x="551.367188"/>
     <use xlink:href="#DejaVuSans-20" x="585.058594"/>
     <use xlink:href="#DejaVuSans-72" x="616.845703"/>
     <use xlink:href="#DejaVuSans-61" x="657.958984"/>
     <use xlink:href="#DejaVuSans-64" x="719.238281"/>
     <use xlink:href="#DejaVuSans-69" x="782.714844"/>
     <use xlink:href="#DejaVuSans-61" x="810.498047"/>
     <use xlink:href="#DejaVuSans-6c" x="871.777344"/>
     <use xlink:href="#DejaVuSans-20" x="899.560547"/>
     <use xlink:href="#DejaVuSans-74" x="931.347656"/>
     <use xlink:href="#DejaVuSans-69" x="970.556641"/>
     <use xlink:href="#DejaVuSans-63" x="998.339844"/>
     <use xlink:href="#DejaVuSans-6b" x="1053.320312"/>
     <use xlink:href="#DejaVuSans-73" x="1111.230469"/>
     <use xlink:href="#DejaVuSans-20" x="1163.330078"/>
     <use xlink:href="#DejaVuSans-61" x="1195.117188"/>
     <use xlink:href="#DejaVuSans-72" x="1256.396484"/>
     <use xlink:href="#DejaVuSans-65" x="1295.259766"/>
     <use xlink:href="#DejaVuSans-20" x="1356.783203"/>
     <use xlink:href="#DejaVuSans-73" x="1388.570312"/>
     <use xlink:href="#DejaVuSans-68" x="1440.669922"/>
     <use xlink:href="#DejaVuSans-69" x="1504.048828"/>
     <use xlink:href="#DejaVuSans-66" x="1531.832031"/>
     <use xlink:href="#DejaVuSans-74" x="1565.287109"/>
     <use xlink:href="#DejaVuSans-65" x="1604.496094"/>
     <use xlink:href="#DejaVuSans-64" x="1666.019531"/>
     <use xlink:href="#DejaVuSans-20" x="1729.496094"/>
     <use xlink:href="#DejaVuSans-66" x="1761.283203"/>
     <use xlink:href="#DejaVuSans-6f" x="1796.488281"/>
     <use xlink:href="#DejaVuSans-72" x="1857.669922"/>
     <use xlink:href="#DejaVuSans-20" x="1898.783203"/>
     <use xlink:href="#DejaVuSans-76" x="1930.570312"/>
     <use xlink:href="#DejaVuSans-69" x="1989.75"/>
     <use xlink:href="#DejaVuSans-73" x="2017.533203"/>
     <use xlink:href="#DejaVuSans-75" x="2069.632812"/>
     <use xlink:href="#DejaVuSans-61" x="2133.011719"/>
     <use xlink:href="#DejaVuSans-6c" x="2194.291016"/>
     <use xlink:href="#DejaVuSans-69" x="2222.074219"/>
     <use xlink:href="#DejaVuSans-7a" x="2249.857422"/>
     <use xlink:href="#DejaVuSans-61" x="2302.347656"/>
     <use xlink:href="#DejaVuSans-74" x="2363.626953"/>
     <use xlink:href="#DejaVuSans-69" x="2402.835938"/>
     <use xlink:href="#DejaVuSans-6f" x="2430.619141"/>
     <use xlink:href="#DejaVuSans-6e" x="2491.800781"/>
     <use xlink:href="#DejaVuSans-2c" x="2555.179688"/>
     <use xlink:href="#DejaVuSans-20" x="2586.966797"/>
     <use xlink:href="#DejaVuSans-6c" x="2618.753906"/>
     <use xlink:href="#DejaVuSans-61" x="2646.537109"/>
     <use xlink:href="#DejaVuSans-62" x="2707.816406"/>
     <use xlink:href="#DejaVuSans-65" x="2771.292969"/>
     <use xlink:href="#DejaVuSans-6c" x="2832.816406"/>
     <use xlink:href="#DejaVuSans-73" x="2860.599609"/>
     <use xlink:href="#DejaVuSans-20" x="2912.699219"/>
     <use xlink:href="#DejaVuSans-73" x="2944.486328"/>
     <use xlink:href="#DejaVuSans-68" x="2996.585938"/>
     <use xlink:href="#DejaVuSans-6f" x="3059.964844"/>
     <use xlink:href="#DejaVuSans-77" x="3121.146484"/>
     <use xlink:href="#DejaVuSans-20" x="3202.933594"/>
     <use xlink:href="#DejaVuSans-72" x="3234.720703"/>
     <use xlink:href="#DejaVuSans-65" x="3273.583984"/>
     <use xlink:href="#DejaVuSans-61" x="3335.107422"/>
     <use xlink:href="#DejaVuSans-6c" x="3396.386719"/>
     <use xlink:href="#DejaVuSans-20" x="3424.169922"/>
     <use xlink:href="#DejaVuSans-64" x="3455.957031"/>
     <use xlink:href="#DejaVuSans-65" x="3519.433594"/>
     <use xlink:href="#DejaVuSans-6c" x="3580.957031"/>
     <use xlink:href="#DejaVuSans-74" x="3608.740234"/>
     <use xlink:href="#DejaVuSans-61" x="3647.949219"/>
     <use xlink:href="#DejaVuSans-73" x="3709.228516"/>
     <use xlink:href="#DejaVuSans-2e" x="3761.328125"/>
    </g>
   </g>
   <g id="text_21">
    <!-- Zero-shot EMRC gains over strong fusion baselines -->
    <g transform="translate(143.325203 18.597656) scale(0.15 -0.15)">
     <defs>
      <path id="DejaVuSans-Bold-5a" d="M 359 4666 
L 4281 4666 
L 4281 3938 
L 1778 909 
L 4353 909 
L 4353 0 
L 288 0 
L 288 728 
L 2791 3756 
L 359 3756 
L 359 4666 
z
" transform="scale(0.015625)"/>
      <path id="DejaVuSans-Bold-2d" d="M 347 2297 
L 2309 2297 
L 2309 1388 
L 347 1388 
L 347 2297 
z
" transform="scale(0.015625)"/>
      <path id="DejaVuSans-Bold-20" transform="scale(0.015625)"/>
      <path id="DejaVuSans-Bold-4d" d="M 588 4666 
L 2119 4666 
L 3181 2169 
L 4250 4666 
L 5778 4666 
L 5778 0 
L 4641 0 
L 4641 3413 
L 3566 897 
L 2803 897 
L 1728 3413 
L 1728 0 
L 588 0 
L 588 4666 
z
" transform="scale(0.015625)"/>
      <path id="DejaVuSans-Bold-52" d="M 2297 2597 
Q 2675 2597 2839 2737 
Q 3003 2878 3003 3200 
Q 3003 3519 2839 3656 
Q 2675 3794 2297 3794 
L 1791 3794 
L 1791 2597 
L 2297 2597 
z
M 1791 1766 
L 1791 0 
L 588 0 
L 588 4666 
L 2425 4666 
Q 3347 4666 3776 4356 
Q 4206 4047 4206 3378 
Q 4206 2916 3982 2619 
Q 3759 2322 3309 2181 
Q 3556 2125 3751 1926 
Q 3947 1728 4147 1325 
L 4800 0 
L 3519 0 
L 2950 1159 
Q 2778 1509 2601 1637 
Q 2425 1766 2131 1766 
L 1791 1766 
z
" transform="scale(0.015625)"/>
      <path id="DejaVuSans-Bold-67" d="M 2919 594 
Q 2688 288 2409 144 
Q 2131 0 1766 0 
Q 1125 0 706 504 
Q 288 1009 288 1791 
Q 288 2575 706 3076 
Q 1125 3578 1766 3578 
Q 2131 3578 2409 3434 
Q 2688 3291 2919 2981 
L 2919 3500 
L 4044 3500 
L 4044 353 
Q 4044 -491 3511 -936 
Q 2978 -1381 1966 -1381 
Q 1638 -1381 1331 -1331 
Q 1025 -1281 716 -1178 
L 716 -306 
Q 1009 -475 1290 -558 
Q 1572 -641 1856 -641 
Q 2406 -641 2662 -400 
Q 2919 -159 2919 353 
L 2919 594 
z
M 2181 2772 
Q 1834 2772 1640 2515 
Q 1447 2259 1447 1791 
Q 1447 1309 1634 1061 
Q 1822 813 2181 813 
Q 2531 813 2725 1069 
Q 2919 1325 2919 1791 
Q 2919 2259 2725 2515 
Q 2531 2772 2181 2772 
z
" transform="scale(0.015625)"/>
      <path id="DejaVuSans-Bold-69" d="M 538 3500 
L 1656 3500 
L 1656 0 
L 538 0 
L 538 3500 
z
M 538 4863 
L 1656 4863 
L 1656 3950 
L 538 3950 
L 538 4863 
z
" transform="scale(0.015625)"/>
      <path id="DejaVuSans-Bold-6e" d="M 4056 2131 
L 4056 0 
L 2931 0 
L 2931 347 
L 2931 1631 
Q 2931 2084 2911 2256 
Q 2891 2428 2841 2509 
Q 2775 2619 2662 2680 
Q 2550 2741 2406 2741 
Q 2056 2741 1856 2470 
Q 1656 2200 1656 1722 
L 1656 0 
L 538 0 
L 538 3500 
L 1656 3500 
L 1656 2988 
Q 1909 3294 2193 3439 
Q 2478 3584 2822 3584 
Q 3428 3584 3742 3212 
Q 4056 2841 4056 2131 
z
" transform="scale(0.015625)"/>
      <path id="DejaVuSans-Bold-76" d="M 97 3500 
L 1216 3500 
L 2088 1081 
L 2956 3500 
L 4078 3500 
L 2700 0 
L 1472 0 
L 97 3500 
z
" transform="scale(0.015625)"/>
      <path id="DejaVuSans-Bold-66" d="M 2841 4863 
L 2841 4128 
L 2222 4128 
Q 1984 4128 1890 4042 
Q 1797 3956 1797 3744 
L 1797 3500 
L 2753 3500 
L 2753 2700 
L 1797 2700 
L 1797 0 
L 678 0 
L 678 2700 
L 122 2700 
L 122 3500 
L 678 3500 
L 678 3744 
Q 678 4316 997 4589 
Q 1316 4863 1984 4863 
L 2841 4863 
z
" transform="scale(0.015625)"/>
      <path id="DejaVuSans-Bold-62" d="M 2400 722 
Q 2759 722 2948 984 
Q 3138 1247 3138 1747 
Q 3138 2247 2948 2509 
Q 2759 2772 2400 2772 
Q 2041 2772 1848 2508 
Q 1656 2244 1656 1747 
Q 1656 1250 1848 986 
Q 2041 722 2400 722 
z
M 1656 2988 
Q 1888 3294 2169 3439 
Q 2450 3584 2816 3584 
Q 3463 3584 3878 3070 
Q 4294 2556 4294 1747 
Q 4294 938 3878 423 
Q 3463 -91 2816 -91 
Q 2450 -91 2169 54 
Q 1888 200 1656 506 
L 1656 0 
L 538 0 
L 538 4863 
L 1656 4863 
L 1656 2988 
z
" transform="scale(0.015625)"/>
     </defs>
     <use xlink:href="#DejaVuSans-Bold-5a"/>
     <use xlink:href="#DejaVuSans-Bold-65" x="72.509766"/>
     <use xlink:href="#DejaVuSans-Bold-72" x="140.332031"/>
     <use xlink:href="#DejaVuSans-Bold-6f" x="189.648438"/>
     <use xlink:href="#DejaVuSans-Bold-2d" x="258.349609"/>
     <use xlink:href="#DejaVuSans-Bold-73" x="299.853516"/>
     <use xlink:href="#DejaVuSans-Bold-68" x="359.375"/>
     <use xlink:href="#DejaVuSans-Bold-6f" x="430.566406"/>
     <use xlink:href="#DejaVuSans-Bold-74" x="499.267578"/>
     <use xlink:href="#DejaVuSans-Bold-20" x="547.070312"/>
     <use xlink:href="#DejaVuSans-Bold-45" x="581.884766"/>
     <use xlink:href="#DejaVuSans-Bold-4d" x="650.195312"/>
     <use xlink:href="#DejaVuSans-Bold-52" x="749.707031"/>
     <use xlink:href="#DejaVuSans-Bold-43" x="826.708984"/>
     <use xlink:href="#DejaVuSans-Bold-20" x="900.097656"/>
     <use xlink:href="#DejaVuSans-Bold-67" x="934.912109"/>
     <use xlink:href="#DejaVuSans-Bold-61" x="1006.494141"/>
     <use xlink:href="#DejaVuSans-Bold-69" x="1073.974609"/>
     <use xlink:href="#DejaVuSans-Bold-6e" x="1108.251953"/>
     <use xlink:href="#DejaVuSans-Bold-73" x="1179.443359"/>
     <use xlink:href="#DejaVuSans-Bold-20" x="1238.964844"/>
     <use xlink:href="#DejaVuSans-Bold-6f" x="1273.779297"/>
     <use xlink:href="#DejaVuSans-Bold-76" x="1342.480469"/>
     <use xlink:href="#DejaVuSans-Bold-65" x="1407.666016"/>
     <use xlink:href="#DejaVuSans-Bold-72" x="1475.488281"/>
     <use xlink:href="#DejaVuSans-Bold-20" x="1524.804688"/>
     <use xlink:href="#DejaVuSans-Bold-73" x="1559.619141"/>
     <use xlink:href="#DejaVuSans-Bold-74" x="1619.140625"/>
     <use xlink:href="#DejaVuSans-Bold-72" x="1666.943359"/>
     <use xlink:href="#DejaVuSans-Bold-6f" x="1716.259766"/>
     <use xlink:href="#DejaVuSans-Bold-6e" x="1784.960938"/>
     <use xlink:href="#DejaVuSans-Bold-67" x="1856.152344"/>
     <use xlink:href="#DejaVuSans-Bold-20" x="1927.734375"/>
     <use xlink:href="#DejaVuSans-Bold-66" x="1962.548828"/>
     <use xlink:href="#DejaVuSans-Bold-75" x="2006.054688"/>
     <use xlink:href="#DejaVuSans-Bold-73" x="2077.246094"/>
     <use xlink:href="#DejaVuSans-Bold-69" x="2136.767578"/>
     <use xlink:href="#DejaVuSans-Bold-6f" x="2171.044922"/>
     <use xlink:href="#DejaVuSans-Bold-6e" x="2239.746094"/>
     <use xlink:href="#DejaVuSans-Bold-20" x="2310.9375"/>
     <use xlink:href="#DejaVuSans-Bold-62" x="2345.751953"/>
     <use xlink:href="#DejaVuSans-Bold-61" x="2417.333984"/>
     <use xlink:href="#DejaVuSans-Bold-73" x="2484.814453"/>
     <use xlink:href="#DejaVuSans-Bold-65" x="2544.335938"/>
     <use xlink:href="#DejaVuSans-Bold-6c" x="2612.158203"/>
     <use xlink:href="#DejaVuSans-Bold-69" x="2646.435547"/>
     <use xlink:href="#DejaVuSans-Bold-6e" x="2680.712891"/>
     <use xlink:href="#DejaVuSans-Bold-65" x="2751.904297"/>
     <use xlink:href="#DejaVuSans-Bold-73" x="2819.726562"/>
    </g>
   </g>
   <g id="legend_1">
    <g id="line2d_24">
     <path d="M 141.534969 743.842244 
L 151.534969 743.842244 
L 161.534969 743.842244 
" style="fill: none; stroke-dasharray: 5.55,2.4; stroke-dashoffset: 0; stroke: #1f77b4; stroke-opacity: 0.75; stroke-width: 1.5"/>
    </g>
    <g id="text_22">
     <!-- 0 reference -->
     <g transform="translate(169.534969 747.342244) scale(0.1 -0.1)">
      <use xlink:href="#DejaVuSans-30"/>
      <use xlink:href="#DejaVuSans-20" x="63.623047"/>
      <use xlink:href="#DejaVuSans-72" x="95.410156"/>
      <use xlink:href="#DejaVuSans-65" x="134.273438"/>
      <use xlink:href="#DejaVuSans-66" x="195.796875"/>
      <use xlink:href="#DejaVuSans-65" x="231.001953"/>
      <use xlink:href="#DejaVuSans-72" x="292.525391"/>
      <use xlink:href="#DejaVuSans-65" x="331.388672"/>
      <use xlink:href="#DejaVuSans-6e" x="392.912109"/>
      <use xlink:href="#DejaVuSans-63" x="456.291016"/>
      <use xlink:href="#DejaVuSans-65" x="511.271484"/>
     </g>
    </g>
    <g id="line2d_25">
     <path d="M 141.534969 758.520369 
L 151.534969 758.520369 
L 161.534969 758.520369 
" style="fill: none; stroke: #ff7f0e; stroke-width: 2.5; stroke-linecap: square"/>
     <g>
      <use xlink:href="#mded9b4790b" x="151.534969" y="758.520369" style="fill: #ff7f0e; stroke: #ff7f0e"/>
     </g>
    </g>
    <g id="text_23">
     <!-- EMRC − BSS-ZSEn -->
     <g transform="translate(169.534969 762.020369) scale(0.1 -0.1)">
      <defs>
       <path id="DejaVuSans-45" d="M 628 4666 
L 3578 4666 
L 3578 4134 
L 1259 4134 
L 1259 2753 
L 3481 2753 
L 3481 2222 
L 1259 2222 
L 1259 531 
L 3634 531 
L 3634 0 
L 628 0 
L 628 4666 
z
" transform="scale(0.015625)"/>
       <path id="DejaVuSans-4d" d="M 628 4666 
L 1569 4666 
L 2759 1491 
L 3956 4666 
L 4897 4666 
L 4897 0 
L 4281 0 
L 4281 4097 
L 3078 897 
L 2444 897 
L 1241 4097 
L 1241 0 
L 628 0 
L 628 4666 
z
" transform="scale(0.015625)"/>
       <path id="DejaVuSans-52" d="M 2841 2188 
Q 3044 2119 3236 1894 
Q 3428 1669 3622 1275 
L 4263 0 
L 3584 0 
L 2988 1197 
Q 2756 1666 2539 1819 
Q 2322 1972 1947 1972 
L 1259 1972 
L 1259 0 
L 628 0 
L 628 4666 
L 2053 4666 
Q 2853 4666 3247 4331 
Q 3641 3997 3641 3322 
Q 3641 2881 3436 2590 
Q 3231 2300 2841 2188 
z
M 1259 4147 
L 1259 2491 
L 2053 2491 
Q 2509 2491 2742 2702 
Q 2975 2913 2975 3322 
Q 2975 3731 2742 3939 
Q 2509 4147 2053 4147 
L 1259 4147 
z
" transform="scale(0.015625)"/>
       <path id="DejaVuSans-43" d="M 4122 4306 
L 4122 3641 
Q 3803 3938 3442 4084 
Q 3081 4231 2675 4231 
Q 1875 4231 1450 3742 
Q 1025 3253 1025 2328 
Q 1025 1406 1450 917 
Q 1875 428 2675 428 
Q 3081 428 3442 575 
Q 3803 722 4122 1019 
L 4122 359 
Q 3791 134 3420 21 
Q 3050 -91 2638 -91 
Q 1578 -91 968 557 
Q 359 1206 359 2328 
Q 359 3453 968 4101 
Q 1578 4750 2638 4750 
Q 3056 4750 3426 4639 
Q 3797 4528 4122 4306 
z
" transform="scale(0.015625)"/>
       <path id="DejaVuSans-2212" d="M 678 2272 
L 4684 2272 
L 4684 1741 
L 678 1741 
L 678 2272 
z
" transform="scale(0.015625)"/>
       <path id="DejaVuSans-42" d="M 1259 2228 
L 1259 519 
L 2272 519 
Q 2781 519 3026 730 
Q 3272 941 3272 1375 
Q 3272 1813 3026 2020 
Q 2781 2228 2272 2228 
L 1259 2228 
z
M 1259 4147 
L 1259 2741 
L 2194 2741 
Q 2656 2741 2882 2914 
Q 3109 3088 3109 3444 
Q 3109 3797 2882 3972 
Q 2656 4147 2194 4147 
L 1259 4147 
z
M 628 4666 
L 2241 4666 
Q 2963 4666 3353 4366 
Q 3744 4066 3744 3513 
Q 3744 3084 3544 2831 
Q 3344 2578 2956 2516 
Q 3422 2416 3680 2098 
Q 3938 1781 3938 1306 
Q 3938 681 3513 340 
Q 3088 0 2303 0 
L 628 0 
L 628 4666 
z
" transform="scale(0.015625)"/>
       <path id="DejaVuSans-53" d="M 3425 4513 
L 3425 3897 
Q 3066 4069 2747 4153 
Q 2428 4238 2131 4238 
Q 1616 4238 1336 4038 
Q 1056 3838 1056 3469 
Q 1056 3159 1242 3001 
Q 1428 2844 1947 2747 
L 2328 2669 
Q 3034 2534 3370 2195 
Q 3706 1856 3706 1288 
Q 3706 609 3251 259 
Q 2797 -91 1919 -91 
Q 1588 -91 1214 -16 
Q 841 59 441 206 
L 441 856 
Q 825 641 1194 531 
Q 1563 422 1919 422 
Q 2459 422 2753 634 
Q 3047 847 3047 1241 
Q 3047 1584 2836 1778 
Q 2625 1972 2144 2069 
L 1759 2144 
Q 1053 2284 737 2584 
Q 422 2884 422 3419 
Q 422 4038 858 4394 
Q 1294 4750 2059 4750 
Q 2388 4750 2728 4690 
Q 3069 4631 3425 4513 
z
" transform="scale(0.015625)"/>
       <path id="DejaVuSans-5a" d="M 359 4666 
L 4025 4666 
L 4025 4184 
L 1075 531 
L 4097 531 
L 4097 0 
L 288 0 
L 288 481 
L 3238 4134 
L 359 4134 
L 359 4666 
z
" transform="scale(0.015625)"/>
      </defs>
      <use xlink:href="#DejaVuSans-45"/>
      <use xlink:href="#DejaVuSans-4d" x="63.183594"/>
      <use xlink:href="#DejaVuSans-52" x="149.462891"/>
      <use xlink:href="#DejaVuSans-43" x="213.945312"/>
      <use xlink:href="#DejaVuSans-20" x="283.769531"/>
      <use xlink:href="#DejaVuSans-2212" x="315.556641"/>
      <use xlink:href="#DejaVuSans-20" x="399.345703"/>
      <use xlink:href="#DejaVuSans-42" x="431.132812"/>
      <use xlink:href="#DejaVuSans-53" x="497.986328"/>
      <use xlink:href="#DejaVuSans-53" x="561.462891"/>
      <use xlink:href="#DejaVuSans-2d" x="624.939453"/>
      <use xlink:href="#DejaVuSans-5a" x="661.023438"/>
      <use xlink:href="#DejaVuSans-53" x="729.529297"/>
      <use xlink:href="#DejaVuSans-45" x="793.005859"/>
      <use xlink:href="#DejaVuSans-6e" x="856.189453"/>
     </g>
    </g>
    <g id="line2d_26">
     <path d="M 281.494344 743.842244 
L 291.494344 743.842244 
L 301.494344 743.842244 
" style="fill: none; stroke: #2ca02c; stroke-width: 2.3; stroke-linecap: square"/>
     <g>
      <use xlink:href="#mb061c4002f" x="291.494344" y="743.842244" style="fill: #2ca02c; stroke: #2ca02c; stroke-linejoin: miter"/>
     </g>
    </g>
    <g id="text_24">
     <!-- EMRC − ImageNet Cache -->
     <g transform="translate(309.494344 747.342244) scale(0.1 -0.1)">
      <defs>
       <path id="DejaVuSans-49" d="M 628 4666 
L 1259 4666 
L 1259 0 
L 628 0 
L 628 4666 
z
" transform="scale(0.015625)"/>
       <path id="DejaVuSans-6d" d="M 3328 2828 
Q 3544 3216 3844 3400 
Q 4144 3584 4550 3584 
Q 5097 3584 5394 3201 
Q 5691 2819 5691 2113 
L 5691 0 
L 5113 0 
L 5113 2094 
Q 5113 2597 4934 2840 
Q 4756 3084 4391 3084 
Q 3944 3084 3684 2787 
Q 3425 2491 3425 1978 
L 3425 0 
L 2847 0 
L 2847 2094 
Q 2847 2600 2669 2842 
Q 2491 3084 2119 3084 
Q 1678 3084 1418 2786 
Q 1159 2488 1159 1978 
L 1159 0 
L 581 0 
L 581 3500 
L 1159 3500 
L 1159 2956 
Q 1356 3278 1631 3431 
Q 1906 3584 2284 3584 
Q 2666 3584 2933 3390 
Q 3200 3197 3328 2828 
z
" transform="scale(0.015625)"/>
       <path id="DejaVuSans-67" d="M 2906 1791 
Q 2906 2416 2648 2759 
Q 2391 3103 1925 3103 
Q 1463 3103 1205 2759 
Q 947 2416 947 1791 
Q 947 1169 1205 825 
Q 1463 481 1925 481 
Q 2391 481 2648 825 
Q 2906 1169 2906 1791 
z
M 3481 434 
Q 3481 -459 3084 -895 
Q 2688 -1331 1869 -1331 
Q 1566 -1331 1297 -1286 
Q 1028 -1241 775 -1147 
L 775 -588 
Q 1028 -725 1275 -790 
Q 1522 -856 1778 -856 
Q 2344 -856 2625 -561 
Q 2906 -266 2906 331 
L 2906 616 
Q 2728 306 2450 153 
Q 2172 0 1784 0 
Q 1141 0 747 490 
Q 353 981 353 1791 
Q 353 2603 747 3093 
Q 1141 3584 1784 3584 
Q 2172 3584 2450 3431 
Q 2728 3278 2906 2969 
L 2906 3500 
L 3481 3500 
L 3481 434 
z
" transform="scale(0.015625)"/>
       <path id="DejaVuSans-4e" d="M 628 4666 
L 1478 4666 
L 3547 763 
L 3547 4666 
L 4159 4666 
L 4159 0 
L 3309 0 
L 1241 3903 
L 1241 0 
L 628 0 
L 628 4666 
z
" transform="scale(0.015625)"/>
      </defs>
      <use xlink:href="#DejaVuSans-45"/>
      <use xlink:href="#DejaVuSans-4d" x="63.183594"/>
      <use xlink:href="#DejaVuSans-52" x="149.462891"/>
      <use xlink:href="#DejaVuSans-43" x="213.945312"/>
      <use xlink:href="#DejaVuSans-20" x="283.769531"/>
      <use xlink:href="#DejaVuSans-2212" x="315.556641"/>
      <use xlink:href="#DejaVuSans-20" x="399.345703"/>
      <use xlink:href="#DejaVuSans-49" x="431.132812"/>
      <use xlink:href="#DejaVuSans-6d" x="460.625"/>
      <use xlink:href="#DejaVuSans-61" x="558.037109"/>
      <use xlink:href="#DejaVuSans-67" x="619.316406"/>
      <use xlink:href="#DejaVuSans-65" x="682.792969"/>
      <use xlink:href="#DejaVuSans-4e" x="744.316406"/>
      <use xlink:href="#DejaVuSans-65" x="819.121094"/>
      <use xlink:href="#DejaVuSans-74" x="880.644531"/>
      <use xlink:href="#DejaVuSans-20" x="919.853516"/>
      <use xlink:href="#DejaVuSans-43" x="951.640625"/>
      <use xlink:href="#DejaVuSans-61" x="1021.464844"/>
      <use xlink:href="#DejaVuSans-63" x="1082.744141"/>
      <use xlink:href="#DejaVuSans-68" x="1137.724609"/>
      <use xlink:href="#DejaVuSans-65" x="1201.103516"/>
     </g>
    </g>
    <g id="line2d_27">
     <path d="M 455.761532 743.842244 
L 465.761532 743.842244 
L 475.761532 743.842244 
" style="fill: none; stroke: #d62728; stroke-width: 2.3; stroke-linecap: square"/>
     <g>
      <use xlink:href="#mfbea7fab0d" x="465.761532" y="743.842244" style="fill: #d62728; stroke: #d62728; stroke-linejoin: miter"/>
     </g>
    </g>
    <g id="text_25">
     <!-- EMRC − Fixed Raw -->
     <g transform="translate(483.761532 747.342244) scale(0.1 -0.1)">
      <defs>
       <path id="DejaVuSans-46" d="M 628 4666 
L 3309 4666 
L 3309 4134 
L 1259 4134 
L 1259 2759 
L 3109 2759 
L 3109 2228 
L 1259 2228 
L 1259 0 
L 628 0 
L 628 4666 
z
" transform="scale(0.015625)"/>
       <path id="DejaVuSans-78" d="M 3513 3500 
L 2247 1797 
L 3578 0 
L 2900 0 
L 1881 1375 
L 863 0 
L 184 0 
L 1544 1831 
L 300 3500 
L 978 3500 
L 1906 2253 
L 2834 3500 
L 3513 3500 
z
" transform="scale(0.015625)"/>
      </defs>
      <use xlink:href="#DejaVuSans-45"/>
      <use xlink:href="#DejaVuSans-4d" x="63.183594"/>
      <use xlink:href="#DejaVuSans-52" x="149.462891"/>
      <use xlink:href="#DejaVuSans-43" x="213.945312"/>
      <use xlink:href="#DejaVuSans-20" x="283.769531"/>
      <use xlink:href="#DejaVuSans-2212" x="315.556641"/>
      <use xlink:href="#DejaVuSans-20" x="399.345703"/>
      <use xlink:href="#DejaVuSans-46" x="431.132812"/>
      <use xlink:href="#DejaVuSans-69" x="481.402344"/>
      <use xlink:href="#DejaVuSans-78" x="509.185547"/>
      <use xlink:href="#DejaVuSans-65" x="565.240234"/>
      <use xlink:href="#DejaVuSans-64" x="626.763672"/>
      <use xlink:href="#DejaVuSans-20" x="690.240234"/>
      <use xlink:href="#DejaVuSans-52" x="722.027344"/>
      <use xlink:href="#DejaVuSans-61" x="789.259766"/>
      <use xlink:href="#DejaVuSans-77" x="850.539062"/>
     </g>
    </g>
   </g>
  </g>
 </g>
 <defs>
  <clipPath id="p98e8ed8f7c">
   <path d="M 658.641438 353.973656 
C 658.641438 314.65996 650.897497 275.72854 635.852797 239.407421 
C 620.808097 203.086302 598.755219 170.081838 570.956237 142.282857 
C 543.157256 114.483875 510.152792 92.430997 473.831673 77.386297 
C 437.510554 62.341597 398.579134 54.597656 359.265438 54.597656 
C 319.951742 54.597656 281.020322 62.341597 244.699203 77.386297 
C 208.378083 92.430997 175.373619 114.483875 147.574638 142.282857 
C 119.775657 170.081838 97.722779 203.086302 82.678079 239.407421 
C 67.633379 275.72854 59.889438 314.65996 59.889438 353.973656 
C 59.889438 393.287352 67.633379 432.218772 82.678079 468.539891 
C 97.722779 504.861011 119.775657 537.865475 147.574638 565.664456 
C 175.373619 593.463437 208.378083 615.516315 244.699203 630.561015 
C 281.020322 645.605715 319.951742 653.349656 359.265438 653.349656 
C 398.579134 653.349656 437.510554 645.605715 473.831673 630.561015 
C 510.152792 615.516315 543.157256 593.463437 570.956237 565.664456 
C 598.755219 537.865475 620.808097 504.861011 635.852797 468.539891 
C 650.897497 432.218772 658.641438 393.287352 658.641438 353.973656 
M 359.265438 353.973656 
C 359.265438 353.973656 359.265438 353.973656 359.265438 353.973656 
C 359.265438 353.973656 359.265438 353.973656 359.265438 353.973656 
C 359.265438 353.973656 359.265438 353.973656 359.265438 353.973656 
C 359.265438 353.973656 359.265438 353.973656 359.265438 353.973656 
C 359.265438 353.973656 359.265438 353.973656 359.265438 353.973656 
C 359.265438 353.973656 359.265438 353.973656 359.265438 353.973656 
C 359.265438 353.973656 359.265438 353.973656 359.265438 353.973656 
C 359.265438 353.973656 359.265438 353.973656 359.265438 353.973656 
C 359.265438 353.973656 359.265438 353.973656 359.265438 353.973656 
C 359.265438 353.973656 359.265438 353.973656 359.265438 353.973656 
C 359.265438 353.973656 359.265438 353.973656 359.265438 353.973656 
C 359.265438 353.973656 359.265438 353.973656 359.265438 353.973656 
C 359.265438 353.973656 359.265438 353.973656 359.265438 353.973656 
C 359.265438 353.973656 359.265438 353.973656 359.265438 353.973656 
C 359.265438 353.973656 359.265438 353.973656 359.265438 353.973656 
C 359.265438 353.973656 359.265438 353.973656 359.265438 353.973656 
z
"/>
  </clipPath>
 </defs>
</svg>
